<svg width="32" height="32" viewBox="0 0 32 32" fill="none" xmlns="http://www.w3.org/2000/svg">
<g id="Group">
<g id="Layer 2">
<path id="Vector" d="M16 32C24.8366 32 32 24.8366 32 16C32 7.16344 24.8366 0 16 0C7.16344 0 0 7.16344 0 16C0 24.8366 7.16344 32 16 32Z" fill="#B5461D"/>
<path id="Vector_2" d="M19.547 16.0001L24.342 11.2051C24.4714 11.0758 24.5741 10.9222 24.6442 10.7531C24.7142 10.584 24.7503 10.4028 24.7503 10.2198C24.7503 10.0368 24.7142 9.85561 24.6442 9.68655C24.5741 9.51749 24.4714 9.36388 24.342 9.23451L22.7658 7.65826C22.6364 7.52883 22.4828 7.42616 22.3137 7.35611C22.1447 7.28606 21.9634 7.25 21.7804 7.25C21.5974 7.25 21.4162 7.28606 21.2472 7.35611C21.0781 7.42616 20.9245 7.52883 20.7951 7.65826L16.0001 12.4533L11.2051 7.65826C11.0758 7.52883 10.9222 7.42616 10.7531 7.35611C10.584 7.28606 10.4028 7.25 10.2198 7.25C10.0368 7.25 9.85561 7.28606 9.68655 7.35611C9.51749 7.42616 9.36388 7.52883 9.23451 7.65826L7.65826 9.23451C7.52883 9.36388 7.42616 9.51749 7.35611 9.68655C7.28606 9.85561 7.25 10.0368 7.25 10.2198C7.25 10.4028 7.28606 10.584 7.35611 10.7531C7.42616 10.9222 7.52883 11.0758 7.65826 11.2051L12.4533 16.0001L7.65826 20.7951C7.52883 20.9245 7.42616 21.0781 7.35611 21.2472C7.28606 21.4162 7.25 21.5974 7.25 21.7804C7.25 21.9634 7.28606 22.1447 7.35611 22.3137C7.42616 22.4828 7.52883 22.6364 7.65826 22.7658L9.23451 24.342C9.36388 24.4714 9.51749 24.5741 9.68655 24.6442C9.85561 24.7142 10.0368 24.7503 10.2198 24.7503C10.4028 24.7503 10.584 24.7142 10.7531 24.6442C10.9222 24.5741 11.0758 24.4714 11.2051 24.342L16.0001 19.547L20.7951 24.342C20.9245 24.4714 21.0781 24.5741 21.2472 24.6442C21.4162 24.7142 21.5974 24.7503 21.7804 24.7503C21.9634 24.7503 22.1447 24.7142 22.3137 24.6442C22.4828 24.5741 22.6364 24.4714 22.7658 24.342L24.342 22.7658C24.4714 22.6364 24.5741 22.4828 24.6442 22.3137C24.7142 22.1447 24.7503 21.9634 24.7503 21.7804C24.7503 21.5974 24.7142 21.4162 24.6442 21.2472C24.5741 21.0781 24.4714 20.9245 24.342 20.7951L19.547 16.0001Z" fill="white"/>
</g>
</g>
</svg>
