<svg xmlns="http://www.w3.org/2000/svg" width="73" height="64" viewBox="0 0 73 64" fill="none">
  <g clip-path="url(#clip0_1748_1275)">
    <path d="M68.598 7.33554C66.6069 6.55702 63.7628 7.07309 62.6411 9.26355C61.9156 10.6818 62.3673 12.0281 62.5856 12.6754L62.6171 12.7713C62.7685 13.2293 62.8303 13.7139 62.8266 14.235C62.7042 14.0583 62.5805 13.8779 62.4518 13.6874C62.0644 13.1158 61.6645 12.524 61.185 11.936C59.1043 9.37837 56.775 7.20179 54.2603 5.46936C50.2138 2.68082 45.477 0.875206 40.5624 0.250623C37.8407 -0.0951062 35.0623 -0.0837502 32.304 0.288476C32.2245 0.299832 32.145 0.309927 32.0655 0.321283C27.1143 1.02536 22.375 2.89911 18.3625 5.74065C17.7152 6.19868 17.1197 6.67815 16.543 7.14249L16.3046 7.33428C15.2611 8.17211 14.2188 9.16892 13.116 10.3828C12.9911 10.5203 12.875 10.6654 12.7703 10.813C11.2234 10.7966 9.73193 11.2092 8.32378 12.047C6.93329 12.8748 5.6816 13.9788 4.60404 15.3277C4.50309 15.4539 4.40341 15.5826 4.30878 15.7075C2.09182 18.6285 0.756855 22.1262 0.228167 26.3986C-0.232384 30.1196 0.00483132 33.8393 0.934767 37.4556C1.99971 41.5968 3.56306 44.7777 5.71188 47.1789C6.39325 47.9398 7.14149 48.6224 7.93641 49.2091C9.27769 50.1984 10.4903 50.8999 12.0902 51.363L12.3034 51.604C12.3034 51.604 13.8037 53.5598 16.027 55.5067H16.0282C16.3803 55.807 16.7235 56.0808 17.0414 56.3332C19.9461 58.6321 23.2128 60.3835 26.7509 61.5405C28.313 62.0503 29.7981 62.42 31.2933 62.6673C32.9753 62.9462 34.6976 63.0875 36.4161 63.0875C36.4502 63.0875 36.4843 63.0875 36.5184 63.0875C43.0759 63.066 49.5942 60.9639 54.8735 57.1685C60.1768 53.3553 64.2158 47.8868 66.3495 41.6662L67.8926 37.3761C67.9418 37.3357 67.991 37.2941 68.039 37.2512C69.6326 35.8468 70.179 33.4343 69.3386 31.5151C69.3336 31.5038 69.3285 31.4937 69.3235 31.4823C69.7285 30.9915 69.9922 30.401 70.0755 29.7726C70.2433 28.5007 69.6377 27.562 69.379 27.1607C69.3677 27.143 69.3563 27.1254 69.3449 27.1077C69.2806 26.8263 69.3752 26.0667 69.4068 25.8119C69.5077 25.0043 69.7273 24.1173 69.9392 23.2605L69.9519 23.2101C70.179 22.289 70.4679 21.3754 70.7733 20.4076C70.9462 19.8588 71.1253 19.2897 71.2957 18.7143L71.3436 18.5515C71.7234 17.262 72.2988 15.3138 72.3202 13.4085C72.3657 9.40865 70.0086 7.88694 68.6005 7.33681L68.598 7.33554Z" fill="white"/>
    <path d="M25.6378 28.8599C25.6315 28.0448 25.6264 27.2309 25.5293 26.4196C25.4864 26.0638 25.1684 25.2436 24.6498 25.5477C24.5476 25.607 24.4744 25.7054 24.4126 25.8064C23.8435 26.7313 23.8284 28.0612 23.764 29.116C23.6151 31.5235 24.3974 34.2376 26.0718 36.0104C26.3784 36.3347 26.7431 36.6956 26.704 37.1397C26.656 37.6772 26.0403 38.0369 25.586 38.2236C24.4239 38.7006 23.094 38.2715 22.289 37.3429C21.812 36.7927 21.4953 36.1631 21.2455 35.4881C20.973 34.7499 20.8329 33.9827 20.6928 33.2131C20.5856 32.62 20.5238 32.0257 20.4872 31.4264C20.4367 30.5999 20.3812 29.7734 20.3433 28.9457C20.3307 28.6656 20.3534 28.3842 20.3723 28.1041C20.4481 26.995 20.4279 25.8859 20.3887 24.7768C20.361 24.0096 20.3269 23.2424 20.279 22.4765C20.2159 21.4356 20.0569 20.4059 19.7705 19.4028C19.6695 19.0483 19.4891 18.7152 19.344 18.3732C19.2733 18.2054 19.1888 18.0426 19.127 17.8723C19.0008 17.524 19.0639 17.1972 19.2809 16.902C19.7074 16.3215 20.2903 16.1007 20.9957 16.1701C21.5029 16.2206 21.918 16.4591 22.2789 16.8035C22.8391 17.3385 23.1722 18.0048 23.3817 18.7416C23.5104 19.1972 23.576 19.664 23.605 20.1334C23.6454 20.7857 23.6757 21.4393 23.6177 22.0929C23.6025 22.2671 23.6038 22.4425 23.6177 22.6166C23.6227 22.6809 23.6719 22.7604 23.7262 22.7932C23.7539 22.8096 23.8523 22.7516 23.8889 22.7037C23.9747 22.5888 24.0492 22.4639 24.1148 22.3365C24.3482 21.881 24.6776 21.5087 25.0775 21.1958C25.986 20.4854 27.586 20.7025 28.227 21.6652C28.9588 22.763 28.8742 24.2582 28.7304 25.5048C28.6042 26.6038 28.4629 27.7483 28.8036 28.8246C28.9575 29.3091 29.3499 29.8605 29.8294 29.3558C30.001 29.1753 30.1045 28.9558 30.1777 28.7224C30.3732 28.1028 30.5007 27.477 30.4717 26.8196C30.4313 25.901 30.425 24.9824 30.4023 24.0639C30.3871 23.4292 30.454 22.7995 30.6029 22.1876C30.9284 20.8425 31.5139 19.6287 32.5385 18.6609C33.5063 17.7474 35.2248 17.4445 36.1055 18.6394C36.7188 19.4722 36.7604 20.6873 36.5636 21.6652C36.3642 22.662 35.8961 23.626 35.2008 24.3717C34.9485 24.6418 34.6482 24.8449 34.3176 25.0064C33.5037 25.4064 33.987 26.3565 34.4829 26.8171C34.6406 26.9634 34.8286 27.0858 35.0393 27.1212C35.7951 27.2461 36.4109 26.4133 36.7503 25.8581C37.1238 25.2474 37.4165 24.5963 37.7257 23.9516C38.0853 23.2008 38.2506 22.4059 38.3616 21.5882C38.5332 20.3176 38.8714 19.0243 39.5691 17.9341C40.224 16.9108 41.4429 15.7966 42.7526 15.9733C43.1627 16.0288 43.54 16.2168 43.8516 16.4856C45.4427 17.8496 44.9027 20.4501 43.9273 21.9996C43.7949 22.2103 43.6397 22.4109 43.4706 22.5939C43.164 22.9295 42.7766 23.1289 42.3324 23.2222C42.1836 23.2538 42.0347 23.2853 41.8921 23.3383C41.6498 23.4279 41.5337 23.6008 41.5766 23.8544C41.6587 24.3301 41.8101 24.7869 42.1306 25.1603C42.5583 25.6588 43.2031 25.819 43.8264 25.6058C44.4119 25.4051 44.8648 25.0178 45.2926 24.59C46.1922 23.6891 46.7664 22.551 47.3808 21.452C47.4629 21.3043 47.5474 21.1491 47.5499 20.9813C47.5537 20.6962 47.3316 20.4678 47.1462 20.252C46.3083 19.2716 46.0118 17.8546 46.3891 16.6218C46.7058 15.5872 47.6496 14.6333 48.7234 14.7569C49.3543 14.8289 49.9107 15.2717 50.1971 15.8383C50.4836 16.4048 50.5202 17.0774 50.3776 17.6969C50.3082 17.9997 50.2388 18.401 50.5126 18.5473C50.6287 18.6092 50.7687 18.594 50.8962 18.5675C51.3921 18.4641 51.8526 18.2003 52.3586 18.1675C53.1851 18.1145 53.9913 18.7959 54.0759 19.6211C54.1743 20.5813 53.4412 21.3927 52.9277 22.2103C52.3624 23.1125 52.0305 24.1585 51.9725 25.2222C51.9283 26.0449 52.1353 27.0076 52.8759 27.3685C53.5648 27.7041 54.3875 27.3596 55.0235 26.9319C55.5118 26.6026 55.966 26.2202 56.3736 25.795C56.4909 25.6726 56.6095 25.5364 56.6411 25.3685C56.6878 25.1174 56.5275 24.879 56.3837 24.667C55.7692 23.761 55.3238 22.7226 55.2178 21.6337C55.1118 20.5447 55.3642 19.4016 56.0215 18.5271C56.4569 17.948 57.0613 17.4988 57.7414 17.2477C58.6347 16.9184 59.6984 16.9575 60.4731 17.5114C61.3135 18.112 61.6819 19.2224 61.6012 20.252C61.5204 21.2816 61.0535 22.2431 60.4984 23.115C60.3444 23.3573 60.1753 23.6235 60.2195 23.9074C60.2498 24.1017 60.3747 24.2645 60.4933 24.4209C61.7185 26.0322 62.7077 27.877 63.0005 29.8794C63.2932 31.8819 62.815 34.0572 61.4321 35.5347C60.0479 37.011 57.6947 37.6129 55.8941 36.6893C54.6311 36.0407 53.7592 34.6994 53.6519 33.2825C53.5787 32.3071 53.8601 31.2964 54.4847 30.5444C55.1093 29.7924 56.0846 29.3242 57.0613 29.3772C57.3603 29.3936 57.6871 29.4756 57.8511 29.7255C57.9647 29.8971 57.9786 30.1141 58.0076 30.3173C58.077 30.8018 58.3369 31.3393 58.8189 31.4201C59.2441 31.492 59.6542 31.1463 59.788 30.7374C59.9205 30.3274 59.8372 29.8794 59.7072 29.4693C59.4132 28.5394 58.8845 27.6852 58.1842 27.0063C58.0694 26.8953 57.9369 26.783 57.7767 26.7792C57.5862 26.7742 57.431 26.9231 57.301 27.0619C56.2411 28.1937 55.1875 29.381 53.8185 30.1065C52.5214 30.7955 50.8634 30.9923 49.565 30.205C48.4281 29.516 47.8805 28.0524 47.9158 26.7704C47.9625 25.1061 48.7057 23.6134 49.43 22.151L49.4338 22.1434C49.5347 21.939 49.6256 21.6652 49.4615 21.505C49.3404 21.3876 49.1335 21.4091 48.9972 21.5062C48.8609 21.6034 48.7764 21.7573 48.6969 21.9049C48.0584 23.1011 47.3657 24.2418 46.6162 25.3723C46.0787 26.1849 45.4238 26.9811 44.7084 27.6423C43.4504 28.8056 41.6637 29.511 40.089 28.5104C39.501 28.1369 39.1048 27.5918 38.8449 26.9483C38.7906 26.8145 38.7528 26.6732 38.6834 26.547C38.561 26.3225 38.3641 26.3199 38.2581 26.5534C38.1257 26.8436 38.0222 27.1451 37.9124 27.4454C37.6802 28.0826 37.4026 28.6971 37.0468 29.275C36.7087 29.8252 36.3011 30.3135 35.7699 30.6844C35.5478 30.8396 35.3068 30.981 35.057 31.0832C34.0009 31.5147 32.9523 31.2888 32.1511 30.4725C32.0136 30.3311 31.8924 30.1734 31.7587 30.0283C31.6678 29.9299 31.5808 29.7936 31.4205 29.8504C31.2742 29.9021 31.2767 30.0498 31.2653 30.1785C31.1593 31.3242 30.9865 32.5582 30.372 33.5563C29.755 34.5594 28.6509 35.0742 27.5582 34.442C27.0838 34.1682 26.6964 33.7973 26.4226 33.314C26.063 32.6781 25.8359 32.0043 25.745 31.275C25.6453 30.4725 25.6365 29.6687 25.6302 28.8637L25.6378 28.8599ZM43.2548 18.835C43.2334 18.7278 43.222 18.5574 43.1627 18.4048C43.0529 18.1221 42.7892 18.0666 42.5558 18.2634C42.4864 18.3215 42.422 18.3909 42.3753 18.4666C42.2883 18.6079 42.2088 18.7555 42.1381 18.9069C41.8668 19.4899 41.723 20.1119 41.5867 20.7353C41.5564 20.8753 41.5388 21.0217 41.5413 21.1643C41.5476 21.5352 41.8176 21.7005 42.1482 21.5327C42.2668 21.4721 42.3791 21.3826 42.47 21.2841C42.5709 21.1731 42.658 21.0444 42.7274 20.9107C43.058 20.2798 43.1791 19.5946 43.2535 18.835H43.2548ZM33.5593 22.4992C33.5593 22.6128 33.5517 22.7276 33.5605 22.8399C33.5719 22.9888 33.6148 23.1276 33.7687 23.192C33.9239 23.2563 34.0577 23.1869 34.1624 23.086C34.2759 22.9775 34.3832 22.8551 34.4677 22.7226C34.7794 22.2292 34.9106 21.6778 34.9308 21.1012C34.9396 20.8539 34.9132 20.6015 34.8728 20.3555C34.8387 20.1498 34.7491 19.9429 34.5119 19.9088C34.2633 19.8722 34.1283 20.0552 34.0211 20.2457C33.9618 20.3504 33.9163 20.4652 33.8747 20.5775C33.6413 21.1971 33.6148 21.8507 33.5593 22.4992ZM59.7451 20.2608C59.7362 20.199 59.7325 20.1384 59.7198 20.0804C59.682 19.8899 59.5962 19.7321 59.3892 19.6918C59.2 19.6552 59.065 19.7624 58.9741 19.9088C58.8833 20.0552 58.7962 20.2116 58.747 20.3744C58.6107 20.8249 58.6183 21.2854 58.6965 21.746C58.7054 21.7977 58.723 21.8494 58.747 21.8961C58.8467 22.0917 59.0158 22.1182 59.1672 21.963C59.1937 21.9365 59.2176 21.9062 59.2378 21.8734C59.5331 21.375 59.658 20.8236 59.7463 20.2608H59.7451ZM48.7322 17.196C48.6502 17.1985 48.577 17.2919 48.5808 17.389C48.5846 17.4799 48.6552 17.5619 48.7284 17.5594C48.8079 17.5568 48.8811 17.4622 48.8786 17.3638C48.8761 17.2691 48.8104 17.1934 48.7322 17.196Z" fill="black"/>
    <path d="M7.79983 27.7978C7.8074 31.0128 8.47741 34.3767 9.68368 37.357C10.6944 39.8566 12.3246 42.519 14.8595 43.7013C18.1212 45.223 21.947 44.4811 24.6194 42.1707C26.131 40.8635 27.6124 39.5197 29.1076 38.1923C30.6079 36.8599 32.1031 35.5199 33.6134 34.1975C34.0639 33.8026 34.5471 33.4417 35.0355 33.0935C36.1269 32.3187 37.2423 31.5818 38.4297 30.9573C39.7154 30.2797 41.0643 29.7788 42.5027 29.5453C43.3153 29.4128 44.138 29.3914 44.9569 29.4873C45.7139 29.5756 46.4571 29.7346 47.1562 30.0475C49.9384 31.2929 52.6903 34.86 51.4323 38.0031C50.6967 39.8402 48.8533 40.7979 47.0123 41.1954C46.3915 41.3291 45.7695 41.4086 45.136 41.3708C44.6288 41.3405 44.143 41.2269 43.7014 40.9683C43.2143 40.6831 42.9797 40.2541 43.0617 39.6888C43.0919 39.4831 43.1614 39.2686 43.2686 39.092C43.5046 38.7034 43.7771 38.3362 44.0307 37.9589C44.2389 37.651 44.4786 37.357 44.6414 37.0264C45.0944 36.0978 45.0364 35.1855 44.4421 34.3313C44.1645 33.9313 43.7733 33.6714 43.3027 33.5414C42.6705 33.3673 42.0321 33.2588 41.3684 33.2865C40.9368 33.3042 40.5267 33.4089 40.1141 33.5061C39.3318 33.6903 38.6076 34.0297 37.906 34.4108C36.4752 35.188 35.1881 36.1646 33.9831 37.2548C33.0292 38.1179 32.1371 39.0403 31.2791 39.9992C30.464 40.9115 29.6451 41.8212 28.8048 42.7108C27.9165 43.6508 26.96 44.5202 25.9758 45.3593C25.1355 46.076 24.2661 46.7523 23.321 47.3239C22.3242 47.9257 21.2971 48.4771 20.1628 48.7762C19.296 49.0046 18.4152 49.1661 17.5181 49.2355C16.6727 49.3023 15.8311 49.2822 14.992 49.1774C12.9933 48.9276 11.1638 48.2298 9.53983 47.0311C8.87866 46.5441 8.27553 45.9889 7.72413 45.3732C5.57026 42.9682 4.34507 39.8718 3.55014 36.7804C2.70979 33.5099 2.49277 30.0803 2.9079 26.729C3.32933 23.3247 4.3703 20.092 6.45982 17.3376C6.5431 17.2278 6.62764 17.1193 6.71344 17.012C7.55631 15.9572 8.54302 15.0588 9.70513 14.3661C10.8433 13.6885 12.076 13.392 13.3984 13.556C15.0172 13.7554 16.2349 15.0373 16.896 16.4568C18.3042 19.4775 18.1351 23.1847 16.6538 26.1335C16.3156 26.806 15.9131 27.4457 15.4563 28.0438C15.0147 28.6217 14.4583 29.1428 13.8135 29.4848C13.3025 29.756 12.7157 29.886 12.1669 29.6551C11.8161 29.5075 11.5158 29.2904 11.2748 29.0002C10.5051 28.0766 10.061 26.1751 11.2836 25.4155C11.8716 25.0496 12.7624 25.2565 13.0413 24.4881C13.1864 24.0868 13.3075 23.6831 13.3656 23.2579C13.4274 22.8074 13.5435 22.3633 13.5977 21.9115C13.7479 20.6737 13.9472 19.1356 13.4716 17.9445C13.3176 17.5596 13.0224 17.2051 12.6173 17.0751C12.3145 16.9792 11.9789 17.0221 11.6861 17.1445C10.8735 17.4865 10.3095 18.3104 9.87673 19.0397C9.31776 19.9797 8.9468 21.0207 8.62504 22.0617C8.10392 23.7449 7.844 25.5038 7.80614 27.264C7.80236 27.4407 7.8011 27.6186 7.8011 27.7952L7.79983 27.7978Z" fill="black"/>
    <path d="M36.5733 54.7155C33.7469 54.6852 30.9912 54.2209 28.2935 53.402C27.9389 53.2948 27.5983 53.137 27.2576 52.9869C26.2481 52.5427 25.2677 52.0393 24.3277 51.4639C24.0173 51.2734 23.7157 51.0652 23.4255 50.8456C23.047 50.5592 23.0584 50.2829 23.447 50.0103C23.6463 49.8715 23.8558 49.7479 24.0653 49.623C24.9548 49.0905 25.7674 48.4545 26.5686 47.7997C28.2216 46.4483 29.7193 44.9392 31.1363 43.3481C32.2088 42.1444 33.2876 40.9482 34.4523 39.8315C35.7759 38.5622 37.2181 37.4568 38.8546 36.6152C39.6609 36.2014 40.505 35.9137 41.4097 35.838C41.8753 35.7988 42.3372 35.8771 42.7687 36.06C43.1485 36.2203 43.3428 36.6203 43.2381 37.019C43.1851 37.2209 43.0942 37.4202 42.9845 37.5982C42.8406 37.8303 42.6652 38.0423 42.4974 38.2581C42.1037 38.7653 41.7454 39.2953 41.5309 39.9022C41.2369 40.7324 41.2722 41.5387 41.7731 42.2996C42.3359 43.1538 43.1434 43.632 44.1276 43.7923C45.9686 44.0926 47.7275 43.8188 49.3855 42.9456C50.0479 42.5973 50.6498 42.1595 51.2491 41.7191C51.3829 41.6207 51.5015 41.4983 51.61 41.3721C51.8762 41.0605 52.1425 40.7463 52.3911 40.4208C52.8226 39.8542 53.0497 39.1943 53.215 38.5104C53.2377 38.4158 53.2642 38.3174 53.3096 38.2328C53.398 38.0688 53.5494 38.0158 53.7147 38.1003C53.8345 38.1609 53.9443 38.248 54.0478 38.335C54.7594 38.9356 55.5733 39.3281 56.4792 39.5274C56.7896 39.5956 57.1114 39.6057 57.4281 39.6435C57.5631 39.6599 57.7019 39.6662 57.8331 39.699C58.0767 39.7596 58.1877 39.9236 58.1599 40.1722C58.1498 40.2693 58.1233 40.3678 58.0867 40.4574C57.6451 41.5349 57.1089 42.5633 56.5272 43.5727C55.201 45.8742 53.3891 47.7442 51.3577 49.4135C48.689 51.6065 45.6796 53.1484 42.3245 53.9963C41.0552 54.3168 39.7669 54.5326 38.4597 54.6196C37.8301 54.6613 37.2004 54.6865 36.5708 54.718L36.5733 54.7155Z" fill="#EE7E56"/>
    <path d="M55.23 17.7086C55.2174 17.9282 55.0975 18.1061 54.8969 18.2272C54.7064 18.3421 54.5158 18.3067 54.3392 18.1894C54.2383 18.1225 54.1449 18.043 54.049 17.9686C53.6427 17.6506 53.1847 17.4651 52.6686 17.4336C52.1323 17.3995 51.9683 17.2759 51.8156 16.7497C51.6163 16.0683 51.2668 15.4816 50.7305 15.0147C50.0365 14.4103 49.2466 14.0495 48.3016 14.0886C47.6177 14.1176 47.0183 14.3838 46.4568 14.7447C46.0632 14.9971 45.7288 15.3188 45.4689 15.7112C45.4348 15.7617 45.3995 15.8122 45.3629 15.8601C45.1181 16.1781 44.896 16.2223 44.5553 16.0166C44.4519 15.9535 44.3534 15.8816 44.25 15.8172C43.667 15.4576 43.0349 15.2557 42.3485 15.2784C41.7731 15.2974 41.2204 15.4311 40.7043 15.6936C39.6255 16.2425 38.7915 17.0538 38.1505 18.0733C38.0622 18.2146 37.9764 18.361 37.8691 18.4872C37.6836 18.7055 37.4679 18.7143 37.2521 18.5275C37.189 18.4733 37.1335 18.4089 37.078 18.3471C36.4319 17.638 35.6433 17.2266 34.6768 17.1358C34.0472 17.0765 33.4705 17.2279 32.904 17.4576C32.34 17.6859 31.8542 18.0354 31.4164 18.4544C30.7627 19.0789 30.2063 19.7767 29.7899 20.583C29.7205 20.718 29.6499 20.8543 29.5628 20.9767C29.4051 21.1975 29.1969 21.2366 28.9647 21.0991C28.8739 21.0448 28.7893 20.9792 28.7073 20.9111C27.8733 20.2095 26.9067 20.0051 25.8468 20.1338C25.7194 20.1489 25.5894 20.1641 25.4607 20.1616C25.2248 20.1578 25.0557 20.0404 24.9686 19.8209C24.932 19.73 24.9093 19.6329 24.8879 19.537C24.6481 18.5124 24.2078 17.5875 23.4987 16.8039C23.0356 16.2929 22.4602 15.9409 21.8243 15.6873C21.4293 15.5295 21.0129 15.5005 20.5915 15.5081C20.4552 15.5106 20.3164 15.5207 20.1814 15.5081C19.895 15.4829 19.7941 15.2885 19.9442 15.0475C20.0123 14.939 20.0981 14.8381 20.1928 14.7523C20.6495 14.3397 21.1088 13.9296 21.5744 13.5271C22.6596 12.5883 23.8532 11.8022 25.0948 11.0918C26.2165 10.4496 27.385 9.89946 28.6089 9.47298C29.824 9.05028 31.058 8.70455 32.3211 8.46481C32.798 8.37396 33.2813 8.31844 33.7645 8.26419C34.3386 8.19984 34.9128 8.14053 35.4881 8.10268C36.3613 8.04464 37.2344 8.04211 38.1063 8.14432C38.5366 8.19479 38.9669 8.23895 39.3984 8.27302C40.2274 8.3399 41.0349 8.51907 41.84 8.71212C43.4538 9.10075 45.0222 9.61682 46.5199 10.3436C47.8372 10.9821 49.0851 11.7366 50.2712 12.5883C50.8075 12.9732 51.3122 13.4034 51.8106 13.8362C52.333 14.2892 52.8591 14.7435 53.3336 15.2444C53.9215 15.8677 54.4603 16.5402 55.0155 17.1951C55.1341 17.3352 55.2262 17.4941 55.23 17.7086Z" fill="#EE7E56"/>
    <path d="M36.5096 60.3857C34.9134 60.3908 33.3147 60.2646 31.735 60.0022C30.3243 59.7687 28.9477 59.4167 27.5913 58.9725C24.351 57.9139 21.3934 56.3304 18.7197 54.2156C18.0635 53.6958 17.4162 53.1683 16.8207 52.5791C16.7235 52.4832 16.6213 52.3898 16.5418 52.2788C16.3866 52.0655 16.4068 51.8548 16.6604 51.7261C16.8863 51.6113 17.1639 51.634 17.4099 51.605C17.7304 51.5671 18.0471 51.5078 18.3626 51.4447C19.0124 51.3135 19.6597 51.1533 20.3209 51.0927C20.6817 51.0599 21.0678 51.0612 21.411 51.1936C21.7782 51.335 22.0823 51.6517 22.4028 51.875C22.9681 52.2687 23.5435 52.6447 24.1378 52.9917C25.2986 53.6667 26.5187 54.2409 27.7742 54.7165C28.8619 55.1291 29.9773 55.4496 31.1129 55.7058C37.3272 57.1139 44.0285 55.9733 49.4529 52.6359C53.9272 49.8826 57.4842 45.6658 59.4425 40.7915C59.628 40.3297 59.8021 39.8565 60.086 39.4464C60.3926 39.0048 60.8128 38.6553 61.2418 38.331C61.6935 37.9903 62.1818 37.6623 62.7408 37.5714C63.2998 37.4806 63.9433 37.69 64.1994 38.1947C64.4253 38.6414 64.2991 39.1777 64.1565 39.6571C62.337 45.7692 58.4785 51.2492 53.2976 54.9739C48.4309 58.4729 42.5018 60.3643 36.5108 60.3845L36.5096 60.3857Z" fill="black"/>
    <path d="M60.4073 16.5762C60.3404 16.5623 60.2193 16.5459 60.1032 16.5131C59.5316 16.3491 58.9625 16.368 58.3947 16.532C58.0225 16.6393 57.6515 16.7478 57.2818 16.8651C56.7923 17.0203 56.5122 16.956 56.2005 16.5408C53.7211 13.2312 50.308 10.5789 46.5377 8.90201C43.4035 7.50773 39.9752 6.77968 36.5444 6.77085C32.7957 6.76202 29.0191 7.61877 25.6338 9.27297C23.273 10.4262 21.162 11.9845 19.2428 13.7687C18.9715 14.0211 18.7343 14.3125 18.4794 14.5838C18.3545 14.7163 18.2372 14.8589 18.0946 14.9699C17.8637 15.1491 17.6315 15.1365 17.4069 14.9485C17.3085 14.8665 17.2202 14.7693 17.1356 14.6721C16.6398 14.1107 16.053 13.6753 15.3553 13.3927C15.243 13.3473 15.1319 13.2918 15.0335 13.2236C14.7774 13.0482 14.7193 12.7959 14.8745 12.5284C14.9427 12.411 15.0272 12.3 15.118 12.199C16.0139 11.2123 16.9577 10.2761 17.9974 9.44079C18.6309 8.93229 19.2617 8.41496 19.9242 7.94557C23.6275 5.32358 27.9567 3.63532 32.4461 2.99685C32.5193 2.98676 32.5925 2.97667 32.6644 2.96657C35.1665 2.62967 37.7153 2.61327 40.22 2.9325C44.6968 3.50283 49.0096 5.13558 52.7255 7.697C55.1419 9.36256 57.2389 11.3713 59.0875 13.6438C59.6616 14.3491 60.1474 15.1264 60.671 15.8734C60.7227 15.9465 60.7631 16.0311 60.7947 16.1169C60.8956 16.397 60.7581 16.5837 60.406 16.5762H60.4073Z" fill="black"/>
    <path d="M18.7417 30.2889C18.7707 31.1153 18.7771 32.0049 18.8427 32.8907C18.8894 33.5254 19.0294 34.1512 19.1076 34.7834C19.2187 35.6817 19.5038 36.5271 19.8319 37.3637C20.1562 38.1927 20.5991 38.946 21.2363 39.5794C21.9303 40.2683 22.7517 40.71 23.7056 40.9144C23.7939 40.9333 23.886 40.9522 23.9668 40.9913C24.1548 41.0809 24.2078 41.2487 24.1018 41.4267C24.0526 41.5099 23.9832 41.5869 23.9087 41.6487C23.1731 42.2645 22.4034 42.8335 21.5303 43.2436C20.7732 43.5982 19.9783 43.8139 19.1379 43.8417C18.5373 43.8606 17.9405 43.8493 17.3424 43.7673C16.7645 43.6878 16.3683 43.39 16.0983 42.884C15.6579 42.0588 15.2466 41.2197 14.9009 40.3516C14.6649 39.7598 14.434 39.163 14.2485 38.5548C14.0315 37.8444 13.8738 37.1164 13.6769 36.3997C13.5255 35.847 13.4839 35.278 13.3993 34.7165C13.3236 34.2143 13.2618 33.7083 13.1962 33.2049C13.1836 33.1077 13.1785 33.008 13.176 32.9096C13.1697 32.6143 13.3034 32.3998 13.5596 32.261C13.6529 32.2106 13.7488 32.1614 13.8473 32.1248C14.8643 31.7425 15.6731 31.0813 16.3595 30.2548C17.0219 29.4561 17.5796 28.588 18.0578 27.6682C18.1272 27.5344 18.2042 27.4019 18.2913 27.2783C18.3481 27.1962 18.4326 27.1319 18.5436 27.1584C18.6547 27.1849 18.7001 27.2795 18.7178 27.3779C18.7379 27.489 18.743 27.6038 18.743 27.7174C18.7455 28.5539 18.743 29.3892 18.743 30.2889H18.7417Z" fill="#EE7E56"/>
    <path d="M63.3323 24.9747C63.3248 24.065 63.4573 23.1603 63.7134 22.3414C64.2421 20.6531 64.7796 18.927 65.1531 17.182C65.5266 15.4344 65.7587 13.6628 65.1846 11.9266C65.0307 11.4585 64.8238 10.9361 65.0484 10.4983C65.4786 9.6592 66.8515 9.55699 67.6161 9.85604C70.8046 11.1014 69.3965 15.5934 68.7025 17.9542C68.2482 19.4961 67.7145 21.0026 67.3284 22.5647C67.0937 23.5123 66.8489 24.4965 66.7253 25.4807C66.6079 26.4233 66.4881 27.5778 66.9827 28.4295C67.1669 28.7462 67.4445 29.0591 67.3965 29.4225C67.3688 29.6345 67.2262 29.82 67.0483 29.9399C66.6862 30.1834 66.2244 30.2175 65.8143 30.0938C65.2402 29.9197 64.7733 29.4869 64.4414 28.986C63.673 27.8238 63.3437 26.3539 63.3323 24.976V24.9747Z" fill="black"/>
    <path d="M13.4486 40.6332C13.4486 40.7884 13.4448 40.8894 13.3363 40.9411C13.2379 40.9878 13.1571 40.9386 13.0852 40.8818C13.0146 40.8263 12.9439 40.7632 12.8909 40.6913C12.718 40.4604 12.5426 40.2307 12.3862 39.9885C11.8108 39.0976 11.3793 38.1336 10.9944 37.1507C10.7837 36.6145 10.6184 36.0605 10.4544 35.5079C10.2601 34.8543 10.0708 34.1969 9.91561 33.5332C9.78439 32.9729 9.70742 32.3988 9.60647 31.831C9.57114 31.6291 9.52572 31.4285 9.50553 31.2254C9.48913 31.05 9.49796 30.8632 9.69228 30.7737C9.87397 30.6891 10.0229 30.7888 10.1427 30.9087C10.5213 31.2872 10.944 31.6052 11.3944 31.8916C11.6644 32.0645 11.7742 32.332 11.7982 32.6449C11.8398 33.1824 11.8764 33.7199 11.937 34.2549C11.9887 34.7142 12.077 35.1697 12.1389 35.629C12.3117 36.9122 12.6499 38.1551 13.0474 39.3841C13.1508 39.702 13.2656 40.015 13.3704 40.3329C13.4082 40.4478 13.4322 40.5664 13.4499 40.6332H13.4486Z" fill="black"/>
    <path d="M64.9947 35.6834C64.1847 35.7175 63.4894 35.1963 63.3721 34.2639C63.2522 33.3125 63.5361 32.4911 64.3285 31.8943C65.1663 31.2634 66.3764 31.488 66.8634 32.5996C67.2432 33.4677 66.9644 34.5957 66.2527 35.2241C65.8881 35.5459 65.4641 35.6973 64.9947 35.6821V35.6834Z" fill="black"/>
    <path d="M12.2575 20.9716C12.1855 21.8082 12.2146 22.6561 12.0291 23.4825C11.9773 23.7109 11.9079 23.9368 11.8285 24.1576C11.7187 24.4642 11.5029 24.68 11.2102 24.8251C10.8708 24.9929 10.5364 25.1695 10.1995 25.3437C10.1793 25.3538 10.1591 25.3639 10.1377 25.3727C10.0077 25.432 9.87269 25.4623 9.74904 25.3689C9.62664 25.2768 9.61276 25.138 9.63674 24.9967C9.75661 24.2787 9.89414 23.5633 10.1339 22.8731C10.4127 22.0693 10.7168 21.2769 11.1559 20.5438C11.2417 20.4013 11.3389 20.265 11.4424 20.135C11.4979 20.0656 11.5723 20.0063 11.6505 19.9609C11.855 19.8436 12.0644 19.9054 12.1628 20.1211C12.2146 20.236 12.2411 20.3672 12.2537 20.4934C12.2688 20.6511 12.2575 20.8113 12.2575 20.9716Z" fill="black"/>
    <path d="M53.4824 26.0515C53.5228 25.8168 53.5543 25.5909 53.6023 25.3701C53.6212 25.283 53.6629 25.196 53.7133 25.1241C53.8319 24.955 54.0237 24.9348 54.1587 25.0887C54.3505 25.3083 54.4906 25.5657 54.5411 25.8521C54.6016 26.1978 54.2332 26.6016 53.8786 26.6041C53.7247 26.6041 53.6086 26.5385 53.5556 26.3985C53.514 26.2874 53.5051 26.165 53.4824 26.0515Z" fill="#EE7E56"/>
    <g filter="url(#filter0_d_1748_1275)">
      <path d="M25.3055 12.6678L27.0392 14.0721L26.5055 11.8892C26.4777 11.7744 26.4588 11.6937 26.4512 11.647C26.4436 11.6003 26.4487 11.5498 26.4664 11.4981C26.484 11.4451 26.5244 11.3997 26.5875 11.3593C26.6329 11.3303 26.6834 11.3151 26.7376 11.3126C26.7919 11.3113 26.8424 11.3214 26.8878 11.3454C26.9345 11.3694 26.9698 11.4009 26.995 11.44C27.0114 11.4665 27.0266 11.4981 27.0392 11.5334C27.0518 11.5687 27.0619 11.6053 27.0695 11.6419C27.0771 11.6785 27.0859 11.7164 27.0947 11.7542L27.5515 13.9043C27.5704 13.9851 27.5881 14.0633 27.6032 14.1377C27.6184 14.2122 27.6247 14.2816 27.6234 14.3459C27.6221 14.4103 27.6057 14.4734 27.5729 14.5339C27.5414 14.5945 27.4884 14.6488 27.4165 14.6942C27.3446 14.7396 27.2726 14.7648 27.2045 14.7686C27.1364 14.7724 27.072 14.7598 27.0114 14.7333C26.9509 14.7068 26.8903 14.6702 26.8297 14.6261C26.7692 14.5819 26.7061 14.5327 26.6405 14.4809L24.9131 13.1561C24.8828 13.1321 24.8513 13.1081 24.821 13.0842C24.7907 13.0614 24.7604 13.0349 24.7301 13.0047C24.6999 12.9744 24.6771 12.9479 24.662 12.9226C24.6229 12.8608 24.6115 12.7889 24.6292 12.7069C24.6469 12.6249 24.6935 12.5592 24.768 12.5126C24.8601 12.4545 24.9434 12.4406 25.0166 12.4734C25.0897 12.5063 25.1869 12.5706 25.3042 12.669L25.3055 12.6678Z" fill="white"/>
      <path d="M25.3055 12.6678L27.0392 14.0721L26.5055 11.8892C26.4777 11.7744 26.4588 11.6937 26.4512 11.647C26.4436 11.6003 26.4487 11.5498 26.4664 11.4981C26.484 11.4451 26.5244 11.3997 26.5875 11.3593C26.6329 11.3303 26.6834 11.3151 26.7376 11.3126C26.7919 11.3113 26.8424 11.3214 26.8878 11.3454C26.9345 11.3694 26.9698 11.4009 26.995 11.44C27.0114 11.4665 27.0266 11.4981 27.0392 11.5334C27.0518 11.5687 27.0619 11.6053 27.0695 11.6419C27.0771 11.6785 27.0859 11.7164 27.0947 11.7542L27.5515 13.9043C27.5704 13.9851 27.5881 14.0633 27.6032 14.1377C27.6184 14.2122 27.6247 14.2816 27.6234 14.3459C27.6221 14.4103 27.6057 14.4734 27.5729 14.5339C27.5414 14.5945 27.4884 14.6488 27.4165 14.6942C27.3446 14.7396 27.2726 14.7648 27.2045 14.7686C27.1364 14.7724 27.072 14.7598 27.0114 14.7333C26.9509 14.7068 26.8903 14.6702 26.8297 14.6261C26.7692 14.5819 26.7061 14.5327 26.6405 14.4809L24.9131 13.1561C24.8828 13.1321 24.8513 13.1081 24.821 13.0842C24.7907 13.0614 24.7604 13.0349 24.7301 13.0047C24.6999 12.9744 24.6771 12.9479 24.662 12.9226C24.6229 12.8608 24.6115 12.7889 24.6292 12.7069C24.6469 12.6249 24.6935 12.5592 24.768 12.5126C24.8601 12.4545 24.9434 12.4406 25.0166 12.4734C25.0897 12.5063 25.1869 12.5706 25.3042 12.669L25.3055 12.6678Z" stroke="#231F20" stroke-width="0.286425" stroke-miterlimit="10"/>
    </g>
    <g filter="url(#filter1_d_1748_1275)">
      <path d="M28.7739 13.5305L28.0282 11.1608C27.9891 11.0372 27.9878 10.9362 28.0257 10.8567C28.0623 10.7772 28.1253 10.7242 28.2137 10.6965C28.302 10.6687 28.3891 10.675 28.4648 10.7179C28.5405 10.7608 28.5985 10.8441 28.6376 10.969L29.3833 13.3387C29.4225 13.4636 29.4237 13.5645 29.3859 13.644C29.348 13.7235 29.2837 13.7778 29.1928 13.8068C29.102 13.8358 29.0237 13.8257 28.9468 13.7815C28.8698 13.7374 28.813 13.6528 28.7739 13.5305Z" fill="white"/>
      <path d="M28.7739 13.5305L28.0282 11.1608C27.9891 11.0372 27.9878 10.9362 28.0257 10.8567C28.0623 10.7772 28.1253 10.7242 28.2137 10.6965C28.302 10.6687 28.3891 10.675 28.4648 10.7179C28.5405 10.7608 28.5985 10.8441 28.6376 10.969L29.3833 13.3387C29.4225 13.4636 29.4237 13.5645 29.3859 13.644C29.348 13.7235 29.2837 13.7778 29.1928 13.8068C29.102 13.8358 29.0237 13.8257 28.9468 13.7815C28.8698 13.7374 28.813 13.6528 28.7739 13.5305Z" stroke="#231F20" stroke-width="0.286425" stroke-miterlimit="10"/>
    </g>
    <g filter="url(#filter2_d_1748_1275)">
      <path d="M31.5843 10.0678L30.1863 10.4098L30.3705 11.1618L31.6575 10.8464C31.7521 10.8237 31.8278 10.8274 31.8846 10.8577C31.9414 10.888 31.9793 10.9397 31.9957 11.0091C32.0121 11.0785 32.0032 11.1416 31.9679 11.1959C31.9326 11.2514 31.867 11.2905 31.7711 11.3132L30.484 11.6287L30.6973 12.4993L32.1433 12.146C32.2404 12.122 32.3199 12.1271 32.3805 12.1599C32.4411 12.1927 32.4802 12.2469 32.4991 12.3227C32.518 12.3984 32.5067 12.4602 32.4676 12.517C32.4297 12.5737 32.3616 12.6154 32.2632 12.6394L30.5774 13.052C30.4424 13.0848 30.3377 13.0785 30.2645 13.033C30.19 12.9876 30.1371 12.898 30.1042 12.7643L29.5402 10.4615C29.5188 10.3719 29.5137 10.2962 29.5263 10.2331C29.539 10.17 29.5705 10.1196 29.621 10.0792C29.6715 10.0401 29.7396 10.0085 29.8279 9.98709L31.4657 9.58584C31.5641 9.56187 31.6436 9.56565 31.7017 9.5972C31.761 9.62874 31.7988 9.68048 31.8165 9.7524C31.8342 9.82432 31.8241 9.88867 31.7875 9.94419C31.7496 9.99971 31.6815 10.0401 31.5831 10.0641L31.5843 10.0678Z" fill="white"/>
      <path d="M31.5843 10.0678L30.1863 10.4098L30.3705 11.1618L31.6575 10.8464C31.7521 10.8237 31.8278 10.8274 31.8846 10.8577C31.9414 10.888 31.9793 10.9397 31.9957 11.0091C32.0121 11.0785 32.0032 11.1416 31.9679 11.1959C31.9326 11.2514 31.867 11.2905 31.7711 11.3132L30.484 11.6287L30.6973 12.4993L32.1433 12.146C32.2404 12.122 32.3199 12.1271 32.3805 12.1599C32.4411 12.1927 32.4802 12.2469 32.4991 12.3227C32.518 12.3984 32.5067 12.4602 32.4676 12.517C32.4297 12.5737 32.3616 12.6154 32.2632 12.6394L30.5774 13.052C30.4424 13.0848 30.3377 13.0785 30.2645 13.033C30.19 12.9876 30.1371 12.898 30.1042 12.7643L29.5402 10.4615C29.5188 10.3719 29.5137 10.2962 29.5263 10.2331C29.539 10.17 29.5705 10.1196 29.621 10.0792C29.6715 10.0401 29.7396 10.0085 29.8279 9.98709L31.4657 9.58584C31.5641 9.56187 31.6436 9.56565 31.7017 9.5972C31.761 9.62874 31.7988 9.68048 31.8165 9.7524C31.8342 9.82432 31.8241 9.88867 31.7875 9.94419C31.7496 9.99971 31.6815 10.0401 31.5831 10.0641L31.5843 10.0678Z" stroke="#231F20" stroke-width="0.286425" stroke-miterlimit="10"/>
    </g>
    <g filter="url(#filter3_d_1748_1275)">
      <path d="M34.9832 9.61407L34.5251 9.66832C34.3964 9.68347 34.3043 9.80081 34.3195 9.92951L34.5617 11.9711C34.5769 12.1023 34.5592 12.2032 34.5087 12.2726C34.4583 12.3433 34.3864 12.3837 34.2942 12.395C34.2021 12.4064 34.1201 12.3837 34.0532 12.3256C33.9864 12.2689 33.946 12.1755 33.9296 12.0455L33.6873 10.004C33.6722 9.87526 33.5548 9.78315 33.4261 9.79829L32.9681 9.85254C32.8596 9.86516 32.7763 9.85128 32.7183 9.80964C32.6602 9.768 32.6262 9.7087 32.6173 9.63047C32.6085 9.55224 32.6274 9.48158 32.6766 9.42859C32.7258 9.37559 32.8028 9.34278 32.9063 9.33017L34.9226 9.09043C35.0324 9.07781 35.1169 9.09169 35.1762 9.13333C35.2355 9.17497 35.2696 9.23553 35.2784 9.31376C35.2873 9.39199 35.2683 9.45887 35.2191 9.51186C35.1712 9.56612 35.093 9.59893 34.9844 9.61281L34.9832 9.61407Z" fill="white"/>
      <path d="M34.9832 9.61407L34.5251 9.66832C34.3964 9.68347 34.3043 9.80081 34.3195 9.92951L34.5617 11.9711C34.5769 12.1023 34.5592 12.2032 34.5087 12.2726C34.4583 12.3433 34.3864 12.3837 34.2942 12.395C34.2021 12.4064 34.1201 12.3837 34.0532 12.3256C33.9864 12.2689 33.946 12.1755 33.9296 12.0455L33.6873 10.004C33.6722 9.87526 33.5548 9.78315 33.4261 9.79829L32.9681 9.85254C32.8596 9.86516 32.7763 9.85128 32.7183 9.80964C32.6602 9.768 32.6262 9.7087 32.6173 9.63047C32.6085 9.55224 32.6274 9.48158 32.6766 9.42859C32.7258 9.37559 32.8028 9.34278 32.9063 9.33017L34.9226 9.09043C35.0324 9.07781 35.1169 9.09169 35.1762 9.13333C35.2355 9.17497 35.2696 9.23553 35.2784 9.31376C35.2873 9.39199 35.2683 9.45887 35.2191 9.51186C35.1712 9.56612 35.093 9.59893 34.9844 9.61281L34.9832 9.61407Z" stroke="#231F20" stroke-width="0.286425" stroke-miterlimit="10"/>
    </g>
    <g filter="url(#filter4_d_1748_1275)">
      <path d="M37.7341 9.38817L38.6514 11.1269C38.688 11.1963 38.7914 11.1761 38.799 11.0979L38.958 9.49164C38.9694 9.37051 39.0047 9.28218 39.0627 9.22666C39.1208 9.17114 39.194 9.14717 39.2823 9.156C39.3706 9.16483 39.4425 9.20269 39.4892 9.2683C39.5359 9.33391 39.5536 9.42729 39.541 9.54968L39.2974 12.0177C39.2697 12.2928 39.1422 12.419 38.9138 12.3975C38.8571 12.3925 38.8066 12.3786 38.7624 12.3571C38.7183 12.3357 38.6779 12.3054 38.6413 12.2663C38.6047 12.2272 38.5719 12.1818 38.5429 12.13C38.5139 12.0783 38.4836 12.0266 38.4546 11.9736L37.565 10.2626C37.5284 10.1932 37.4249 10.2134 37.4174 10.2916L37.2622 11.8663C37.2508 11.9862 37.213 12.0745 37.1524 12.13C37.0918 12.1855 37.0161 12.2095 36.9291 12.2007C36.842 12.1919 36.7701 12.154 36.7221 12.0859C36.6742 12.019 36.6553 11.9256 36.6679 11.807L36.9063 9.38565C36.9164 9.28344 36.9354 9.20395 36.9644 9.14717C36.9972 9.08534 37.0477 9.03739 37.1145 9.00333C37.1814 8.96926 37.2508 8.95538 37.324 8.96295C37.3808 8.968 37.4287 8.98314 37.4678 9.00585C37.507 9.02856 37.5398 9.05632 37.5675 9.09165C37.5953 9.12572 37.623 9.16988 37.6495 9.22288C37.6773 9.27587 37.7051 9.33139 37.7341 9.38943V9.38817Z" fill="white"/>
      <path d="M37.7341 9.38817L38.6514 11.1269C38.688 11.1963 38.7914 11.1761 38.799 11.0979L38.958 9.49164C38.9694 9.37051 39.0047 9.28218 39.0627 9.22666C39.1208 9.17114 39.194 9.14717 39.2823 9.156C39.3706 9.16483 39.4425 9.20269 39.4892 9.2683C39.5359 9.33391 39.5536 9.42729 39.541 9.54968L39.2974 12.0177C39.2697 12.2928 39.1422 12.419 38.9138 12.3975C38.8571 12.3925 38.8066 12.3786 38.7624 12.3571C38.7183 12.3357 38.6779 12.3054 38.6413 12.2663C38.6047 12.2272 38.5719 12.1818 38.5429 12.13C38.5139 12.0783 38.4836 12.0266 38.4546 11.9736L37.565 10.2626C37.5284 10.1932 37.4249 10.2134 37.4174 10.2916L37.2622 11.8663C37.2508 11.9862 37.213 12.0745 37.1524 12.13C37.0918 12.1855 37.0161 12.2095 36.9291 12.2007C36.842 12.1919 36.7701 12.154 36.7221 12.0859C36.6742 12.019 36.6553 11.9256 36.6679 11.807L36.9063 9.38565C36.9164 9.28344 36.9354 9.20395 36.9644 9.14717C36.9972 9.08534 37.0477 9.03739 37.1145 9.00333C37.1814 8.96926 37.2508 8.95538 37.324 8.96295C37.3808 8.968 37.4287 8.98314 37.4678 9.00585C37.507 9.02856 37.5398 9.05632 37.5675 9.09165C37.5953 9.12572 37.623 9.16988 37.6495 9.22288C37.6773 9.27587 37.7051 9.33139 37.7341 9.38943V9.38817Z" stroke="#231F20" stroke-width="0.286425" stroke-miterlimit="10"/>
    </g>
    <g filter="url(#filter5_d_1748_1275)">
      <path d="M41.861 12.5504L41.8156 12.1618C41.813 12.1428 41.7992 12.1264 41.7802 12.1214L40.6005 11.8249C40.5815 11.8198 40.5614 11.8274 40.55 11.8438L40.3241 12.1719C40.2282 12.3107 40.1538 12.4015 40.1008 12.4444C40.0465 12.4873 39.9746 12.4974 39.8825 12.4747C39.8043 12.4545 39.7425 12.4091 39.697 12.3371C39.6516 12.2652 39.6377 12.1933 39.6567 12.1201C39.6668 12.0785 39.6844 12.0368 39.7097 11.9965C39.7349 11.9561 39.7727 11.8993 39.8257 11.8287L41.1077 10.0394C41.1443 9.98771 41.1885 9.92588 41.2402 9.85396C41.2919 9.78204 41.3411 9.72399 41.3903 9.67983C41.4396 9.63567 41.4963 9.60539 41.562 9.58646C41.6276 9.56879 41.7033 9.57006 41.7878 9.59151C41.8723 9.61296 41.9418 9.64829 41.991 9.69497C42.0402 9.74166 42.0768 9.79592 42.0995 9.85648C42.1222 9.91705 42.1386 9.98014 42.1474 10.0445C42.1563 10.1101 42.1676 10.1959 42.1802 10.3044L42.4831 12.4785C42.5083 12.6438 42.5121 12.7611 42.4944 12.8292C42.478 12.8936 42.4389 12.9479 42.3758 12.9895C42.2963 13.0437 42.1941 13.0589 42.102 13.0311C42.0616 13.0185 42.0288 13.0008 42.0023 12.9794C41.972 12.9529 41.9481 12.9226 41.9329 12.886C41.9178 12.8494 41.9026 12.7977 41.8913 12.7296C41.8799 12.6614 41.8698 12.6009 41.8623 12.5479L41.861 12.5504ZM40.9134 11.4097L41.697 11.6066C41.7285 11.6141 41.7588 11.5889 41.755 11.5561L41.6314 10.3751C41.6263 10.3309 41.5695 10.317 41.5455 10.3536L40.8856 11.3378C40.868 11.3656 40.8818 11.4022 40.9134 11.4097Z" fill="white"/>
      <path d="M41.861 12.5504L41.8156 12.1618C41.813 12.1428 41.7992 12.1264 41.7802 12.1214L40.6005 11.8249C40.5815 11.8198 40.5614 11.8274 40.55 11.8438L40.3241 12.1719C40.2282 12.3107 40.1538 12.4015 40.1008 12.4444C40.0465 12.4873 39.9746 12.4974 39.8825 12.4747C39.8043 12.4545 39.7425 12.4091 39.697 12.3371C39.6516 12.2652 39.6377 12.1933 39.6567 12.1201C39.6668 12.0785 39.6844 12.0368 39.7097 11.9965C39.7349 11.9561 39.7727 11.8993 39.8257 11.8287L41.1077 10.0394C41.1443 9.98771 41.1885 9.92588 41.2402 9.85396C41.2919 9.78204 41.3411 9.72399 41.3903 9.67983C41.4396 9.63567 41.4963 9.60539 41.562 9.58646C41.6276 9.56879 41.7033 9.57006 41.7878 9.59151C41.8723 9.61296 41.9418 9.64829 41.991 9.69497C42.0402 9.74166 42.0768 9.79592 42.0995 9.85648C42.1222 9.91705 42.1386 9.98014 42.1474 10.0445C42.1563 10.1101 42.1676 10.1959 42.1802 10.3044L42.4831 12.4785C42.5083 12.6438 42.5121 12.7611 42.4944 12.8292C42.478 12.8936 42.4389 12.9479 42.3758 12.9895C42.2963 13.0437 42.1941 13.0589 42.102 13.0311C42.0616 13.0185 42.0288 13.0008 42.0023 12.9794C41.972 12.9529 41.9481 12.9226 41.9329 12.886C41.9178 12.8494 41.9026 12.7977 41.8913 12.7296C41.8799 12.6614 41.8698 12.6009 41.8623 12.5479L41.861 12.5504ZM40.9134 11.4097L41.697 11.6066C41.7285 11.6141 41.7588 11.5889 41.755 11.5561L41.6314 10.3751C41.6263 10.3309 41.5695 10.317 41.5455 10.3536L40.8856 11.3378C40.868 11.3656 40.8818 11.4022 40.9134 11.4097Z" stroke="#231F20" stroke-width="0.286425" stroke-miterlimit="10"/>
    </g>
    <g filter="url(#filter6_d_1748_1275)">
      <path d="M43.9196 13.1453L44.3145 11.4911C44.3271 11.4381 44.254 11.4116 44.2287 11.4596L43.3934 13.0608C43.3379 13.168 43.2723 13.2349 43.1966 13.2639C43.1209 13.293 43.0439 13.2866 42.9657 13.245C42.8875 13.2034 42.8408 13.1466 42.8206 13.0684C42.8004 12.9901 42.8181 12.898 42.8736 12.7895L44.0281 10.5776C44.0912 10.4552 44.1669 10.3896 44.2527 10.3808C44.3385 10.3719 44.4357 10.3946 44.5429 10.4514L44.7183 10.5435C44.8243 10.599 44.895 10.6483 44.9328 10.6924C44.9707 10.7366 44.9883 10.7896 44.9845 10.8501C44.982 10.912 44.9656 11.0066 44.9366 11.1328L44.582 12.7075C44.5719 12.7529 44.6287 12.7832 44.6603 12.7491L45.7492 11.558C45.8362 11.4608 45.9044 11.394 45.9536 11.3561C46.0028 11.3183 46.0558 11.3031 46.1126 11.3082C46.1706 11.3145 46.2514 11.3448 46.3574 11.399L46.5327 11.4911C46.6413 11.5479 46.7157 11.6135 46.7573 11.6892C46.799 11.7649 46.7876 11.8634 46.7233 11.9857L45.5687 14.1977C45.5132 14.3049 45.4476 14.3718 45.3719 14.4008C45.2962 14.4298 45.218 14.4223 45.1385 14.3806C45.064 14.3415 45.0161 14.2822 44.9959 14.204C44.9757 14.1257 44.9934 14.0324 45.0489 13.9264L45.8842 12.3252C45.9094 12.2772 45.8451 12.2331 45.8097 12.2734L44.6779 13.544C44.5883 13.645 44.5202 13.7169 44.4735 13.7611C44.4268 13.8052 44.3675 13.8368 44.2943 13.8557C44.2212 13.8746 44.1417 13.8608 44.0533 13.8153C43.9877 13.7813 43.9385 13.7371 43.9082 13.6854C43.878 13.6324 43.8603 13.5781 43.859 13.5201C43.8578 13.462 43.8628 13.4027 43.8767 13.3409C43.8906 13.2791 43.9045 13.2147 43.9196 13.1491V13.1453Z" fill="white"/>
      <path d="M43.9196 13.1453L44.3145 11.4911C44.3271 11.4381 44.254 11.4116 44.2287 11.4596L43.3934 13.0608C43.3379 13.168 43.2723 13.2349 43.1966 13.2639C43.1209 13.293 43.0439 13.2866 42.9657 13.245C42.8875 13.2034 42.8408 13.1466 42.8206 13.0684C42.8004 12.9901 42.8181 12.898 42.8736 12.7895L44.0281 10.5776C44.0912 10.4552 44.1669 10.3896 44.2527 10.3808C44.3385 10.3719 44.4357 10.3946 44.5429 10.4514L44.7183 10.5435C44.8243 10.599 44.895 10.6483 44.9328 10.6924C44.9707 10.7366 44.9883 10.7896 44.9845 10.8501C44.982 10.912 44.9656 11.0066 44.9366 11.1328L44.582 12.7075C44.5719 12.7529 44.6287 12.7832 44.6603 12.7491L45.7492 11.558C45.8362 11.4608 45.9044 11.394 45.9536 11.3561C46.0028 11.3183 46.0558 11.3031 46.1126 11.3082C46.1706 11.3145 46.2514 11.3448 46.3574 11.399L46.5327 11.4911C46.6413 11.5479 46.7157 11.6135 46.7573 11.6892C46.799 11.7649 46.7876 11.8634 46.7233 11.9857L45.5687 14.1977C45.5132 14.3049 45.4476 14.3718 45.3719 14.4008C45.2962 14.4298 45.218 14.4223 45.1385 14.3806C45.064 14.3415 45.0161 14.2822 44.9959 14.204C44.9757 14.1257 44.9934 14.0324 45.0489 13.9264L45.8842 12.3252C45.9094 12.2772 45.8451 12.2331 45.8097 12.2734L44.6779 13.544C44.5883 13.645 44.5202 13.7169 44.4735 13.7611C44.4268 13.8052 44.3675 13.8368 44.2943 13.8557C44.2212 13.8746 44.1417 13.8608 44.0533 13.8153C43.9877 13.7813 43.9385 13.7371 43.9082 13.6854C43.878 13.6324 43.8603 13.5781 43.859 13.5201C43.8578 13.462 43.8628 13.4027 43.8767 13.3409C43.8906 13.2791 43.9045 13.2147 43.9196 13.1491V13.1453Z" stroke="#231F20" stroke-width="0.286425" stroke-miterlimit="10"/>
    </g>
    <g filter="url(#filter7_d_1748_1275)">
      <path d="M30.0084 48.7864C29.8608 49.204 29.7876 49.4122 29.6413 49.8299C30.3945 50.1277 30.7756 50.2564 31.5415 50.4721C31.6475 50.0406 31.7018 49.8248 31.8077 49.3946C31.8456 49.2406 31.9125 49.1359 32.0058 49.0791C32.0992 49.0223 32.2065 49.011 32.3289 49.0425C32.4525 49.0741 32.5446 49.1372 32.6052 49.2331C32.667 49.329 32.6822 49.4551 32.6506 49.6129C32.4096 50.8116 32.2897 51.4109 32.0487 52.6109C32.0172 52.7686 31.9478 52.8758 31.838 52.9301C31.7283 52.9856 31.5996 52.9944 31.4519 52.9566C31.303 52.9175 31.192 52.8468 31.1226 52.7433C31.0532 52.6411 31.0381 52.5124 31.0759 52.3585C31.2008 51.8525 31.2639 51.5989 31.3888 51.0929C30.599 50.8696 30.2065 50.7371 29.4305 50.4305C29.2577 50.9201 29.1719 51.1661 28.999 51.6557C28.946 51.8058 28.8615 51.9017 28.7429 51.9396C28.6255 51.9774 28.493 51.9661 28.3492 51.9055C28.2041 51.8437 28.1019 51.7554 28.0451 51.6431C27.9883 51.5308 27.9908 51.4008 28.0489 51.2544C28.5044 50.1277 28.7315 49.5649 29.187 48.4381C29.2463 48.2918 29.3258 48.1984 29.4268 48.1568C29.5277 48.1151 29.6375 48.1202 29.7599 48.1719C29.881 48.2224 29.9643 48.2993 30.0135 48.4028C30.0627 48.5063 30.0614 48.6337 30.0084 48.7851V48.7864Z" fill="white" stroke="#231F20" stroke-width="0.286425" stroke-miterlimit="10"/>
      <path d="M35.4332 49.5648C35.8584 49.5989 36.2193 49.6948 36.5272 49.8651C36.8351 50.0355 37.0761 50.2651 37.2502 50.5642C37.4243 50.8632 37.5265 51.2152 37.5454 51.6228C37.5593 51.9244 37.5253 52.1994 37.4369 52.4493C37.3486 52.6978 37.2073 52.9149 37.0092 53.0966C36.8111 53.2783 36.5613 53.4145 36.261 53.5016C35.9606 53.5887 35.6124 53.6189 35.2225 53.5887C34.8351 53.5584 34.4919 53.4713 34.1979 53.335C33.9039 53.1988 33.668 53.0234 33.4926 52.8139C33.3172 52.6045 33.1999 52.3647 33.1393 52.0985C33.0787 51.8323 33.0749 51.5547 33.1216 51.267C33.1696 50.9717 33.263 50.7118 33.3967 50.4834C33.5305 50.255 33.6983 50.0695 33.8976 49.9244C34.097 49.7793 34.3241 49.6784 34.5815 49.6178C34.8389 49.5573 35.1216 49.5409 35.4345 49.5661L35.4332 49.5648ZM36.6193 51.6253C36.6193 51.3402 36.5638 51.0916 36.4616 50.8809C36.3594 50.6689 36.2168 50.5074 36.0313 50.3913C35.8471 50.2752 35.6364 50.2096 35.3966 50.1907C35.225 50.1768 35.066 50.1907 34.9146 50.2348C34.7645 50.279 34.6295 50.3497 34.5121 50.4493C34.3935 50.549 34.2938 50.6815 34.2106 50.8468C34.1273 51.0134 34.073 51.2052 34.0465 51.4222C34.02 51.6417 34.0301 51.8449 34.0755 52.0316C34.1222 52.2184 34.2005 52.3786 34.3128 52.5111C34.4251 52.6436 34.5601 52.7483 34.7191 52.824C34.8768 52.8997 35.0547 52.9452 35.249 52.9603C35.4988 52.9805 35.731 52.9426 35.9417 52.8518C36.1524 52.7609 36.319 52.6095 36.4401 52.4013C36.5613 52.1931 36.6193 51.9332 36.618 51.6253H36.6193Z" fill="white" stroke="#231F20" stroke-width="0.286425" stroke-miterlimit="10"/>
      <path d="M41.8739 51.8136C41.9307 52.0432 41.9105 52.2678 41.8096 52.4849C41.7086 52.7019 41.5257 52.8962 41.2607 53.059C40.9957 53.2218 40.6613 53.3391 40.2626 53.4009C39.7844 53.4754 39.3743 53.4489 39.05 53.3353C38.8191 53.2533 38.6273 53.1284 38.4772 52.9643C38.327 52.8003 38.2476 52.635 38.2349 52.4697C38.2274 52.3738 38.2614 52.2893 38.3346 52.2161C38.4078 52.1429 38.505 52.1013 38.6261 52.0912C38.7245 52.0824 38.809 52.1013 38.8835 52.148C38.9567 52.1947 39.0235 52.2678 39.0841 52.3663C39.156 52.4836 39.2343 52.5795 39.3138 52.654C39.3932 52.7284 39.5005 52.7852 39.6343 52.823C39.7693 52.8596 39.9396 52.8647 40.1465 52.8319C40.4304 52.7877 40.6513 52.6931 40.8065 52.553C40.9616 52.413 41.0197 52.2615 40.9881 52.1013C40.9629 51.9738 40.8948 51.8805 40.7888 51.8187C40.6815 51.7568 40.5528 51.719 40.4014 51.7026C40.25 51.6862 40.0494 51.6748 39.8021 51.6609C39.4702 51.6433 39.1901 51.5978 38.9642 51.5335C38.7384 51.4691 38.5554 51.3644 38.4166 51.2218C38.2778 51.0805 38.2021 50.8963 38.1832 50.6717C38.1655 50.4572 38.2147 50.2629 38.3258 50.0875C38.4356 49.9108 38.6021 49.7683 38.8229 49.6547C39.0437 49.5399 39.3074 49.4629 39.6153 49.4149C39.8614 49.3771 40.0784 49.3683 40.2702 49.3922C40.4607 49.4162 40.626 49.4629 40.7661 49.5323C40.9061 49.603 41.0172 49.6837 41.0979 49.7758C41.1787 49.8679 41.2304 49.9651 41.2544 50.0648C41.2758 50.1569 41.2607 50.2477 41.2052 50.3373C41.1497 50.4269 41.0689 50.4849 40.9604 50.5089C40.862 50.5304 40.7825 50.5241 40.7219 50.49C40.6613 50.4559 40.5882 50.3941 40.5125 50.3045C40.4065 50.1796 40.2954 50.0786 40.1756 50.0168C40.0557 49.955 39.8803 49.9436 39.6469 49.979C39.4311 50.0118 39.262 50.0786 39.1396 50.1846C39.0172 50.2906 38.9617 50.4042 38.9769 50.5291C38.9857 50.6073 39.0172 50.6717 39.0715 50.7222C39.1258 50.7726 39.1964 50.8143 39.2835 50.8446C39.3705 50.8748 39.4589 50.895 39.5472 50.9064C39.6355 50.9177 39.7819 50.9329 39.9825 50.943C40.2336 50.9569 40.467 50.9695 40.6777 50.9922C40.8885 51.0136 41.0727 51.0515 41.2317 51.107C41.3907 51.1625 41.5257 51.2458 41.6367 51.3581C41.7477 51.4704 41.8285 51.6231 41.8752 51.8136H41.8739Z" fill="white" stroke="#231F20" stroke-width="0.286425" stroke-miterlimit="10"/>
      <path d="M44.6415 48.6469C44.3008 48.8034 44.1292 48.8766 43.7823 49.0154C44.1898 50.074 44.3942 50.604 44.8018 51.6626C44.8611 51.8153 44.8623 51.9452 44.8043 52.0525C44.7475 52.1597 44.6504 52.2392 44.5141 52.291C44.3753 52.3427 44.2491 52.3452 44.1356 52.3011C44.022 52.2569 43.9412 52.1572 43.8895 52.0033C43.5274 50.9282 43.3457 50.3907 42.9835 49.3144C42.6315 49.4368 42.4536 49.4936 42.0965 49.5983C41.9565 49.6387 41.8442 49.64 41.7609 49.6008C41.6776 49.5617 41.6233 49.4949 41.5981 49.4002C41.5729 49.3018 41.5867 49.216 41.641 49.1403C41.6953 49.0646 41.7861 49.0091 41.9161 48.9712C42.9242 48.6772 43.4201 48.493 44.3791 48.0526C44.509 47.9933 44.6188 47.9744 44.7071 47.9984C44.7955 48.0224 44.8611 48.0791 44.9015 48.1675C44.9418 48.2558 44.9431 48.3428 44.9015 48.4287C44.8598 48.5145 44.7728 48.5889 44.6403 48.6495L44.6415 48.6469Z" fill="white" stroke="#231F20" stroke-width="0.286425" stroke-miterlimit="10"/>
      <path d="M47.8642 46.7039C47.2295 47.1682 46.9015 47.3814 46.2302 47.7726C46.4144 48.107 46.5078 48.2748 46.692 48.6104C47.3406 48.2332 47.6573 48.0287 48.273 47.5871C48.3866 47.5064 48.485 47.466 48.5721 47.4698C48.6579 47.4723 48.7273 47.5101 48.7778 47.5821C48.8282 47.654 48.8421 47.7335 48.8181 47.8205C48.7942 47.9076 48.7235 47.9947 48.6049 48.0792C47.9727 48.5335 47.6459 48.7442 46.9797 49.1315C47.1942 49.5189 47.3002 49.7132 47.5147 50.1019C48.3021 49.6438 48.6856 49.3927 49.4276 48.8464C49.5525 48.7543 49.6623 48.7076 49.7594 48.7063C49.8566 48.7051 49.9323 48.7429 49.9878 48.8199C50.0421 48.8943 50.0534 48.9801 50.0231 49.0748C49.9929 49.1707 49.9121 49.2666 49.7847 49.3612C48.8951 50.0161 48.4333 50.3126 47.4806 50.8438C47.2901 50.9498 47.1337 50.9901 47.015 50.9662C46.8964 50.9422 46.8005 50.8539 46.7248 50.7012C46.2037 49.6514 45.9425 49.1265 45.4214 48.0767C45.3709 47.9745 45.3457 47.8836 45.3457 47.8029C45.3457 47.7221 45.3709 47.6489 45.4239 47.5846C45.4757 47.519 45.5539 47.4584 45.6574 47.4016C46.4271 46.9714 46.8018 46.7316 47.5235 46.2055C47.6321 46.126 47.728 46.0881 47.8138 46.0944C47.8983 46.0995 47.9677 46.1386 48.0194 46.2118C48.0724 46.2862 48.0888 46.367 48.0674 46.4528C48.0459 46.5386 47.979 46.6231 47.8668 46.7064L47.8642 46.7039Z" fill="white" stroke="#231F20" stroke-width="0.286425" stroke-miterlimit="10"/>
      <path d="M49.3197 45.263C50.049 46.1223 50.4137 46.5513 51.1442 47.4106C51.7448 46.863 52.0351 46.5728 52.5915 45.9608C52.7025 45.8384 52.8085 45.7652 52.912 45.7412C53.0155 45.7173 53.1013 45.7349 53.1681 45.7993C53.2375 45.8636 53.264 45.9507 53.2476 46.0579C53.2312 46.1652 53.1656 46.2838 53.0495 46.4112C52.3682 47.1607 52.0098 47.5128 51.2641 48.1677C51.0963 48.3153 50.9499 48.3897 50.8275 48.3922C50.7051 48.3948 50.5941 48.3292 50.4906 48.1954C49.7588 47.2516 49.3929 46.7797 48.6598 45.8359C48.5626 45.711 48.5197 45.5911 48.5311 45.4788C48.5412 45.3665 48.5942 45.2693 48.6901 45.1873C48.7872 45.1028 48.8894 45.0637 48.9992 45.0712C49.109 45.0775 49.2162 45.1406 49.3197 45.263Z" fill="white" stroke="#231F20" stroke-width="0.286425" stroke-miterlimit="10"/>
    </g>
  </g>
  <defs>
    <filter id="filter0_d_1748_1275" x="24.4785" y="11.168" width="3.54142" height="3.87227" filterUnits="userSpaceOnUse" color-interpolation-filters="sRGB">
      <feFlood flood-opacity="0" result="BackgroundImageFix"/>
      <feColorMatrix in="SourceAlpha" type="matrix" values="0 0 0 0 0 0 0 0 0 0 0 0 0 0 0 0 0 0 127 0" result="hardAlpha"/>
      <feOffset dx="0.252357" dy="0.126178"/>
      <feColorMatrix type="matrix" values="0 0 0 0 0 0 0 0 0 0 0 0 0 0 0 0 0 0 1 0"/>
      <feBlend mode="normal" in2="BackgroundImageFix" result="effect1_dropShadow_1748_1275"/>
      <feBlend mode="normal" in="SourceGraphic" in2="effect1_dropShadow_1748_1275" result="shape"/>
    </filter>
    <filter id="filter1_d_1748_1275" x="27.8555" y="10.5352" width="1.95353" height="3.55587" filterUnits="userSpaceOnUse" color-interpolation-filters="sRGB">
      <feFlood flood-opacity="0" result="BackgroundImageFix"/>
      <feColorMatrix in="SourceAlpha" type="matrix" values="0 0 0 0 0 0 0 0 0 0 0 0 0 0 0 0 0 0 127 0" result="hardAlpha"/>
      <feOffset dx="0.252357" dy="0.126178"/>
      <feColorMatrix type="matrix" values="0 0 0 0 0 0 0 0 0 0 0 0 0 0 0 0 0 0 1 0"/>
      <feBlend mode="normal" in2="BackgroundImageFix" result="effect1_dropShadow_1748_1275"/>
      <feBlend mode="normal" in="SourceGraphic" in2="effect1_dropShadow_1748_1275" result="shape"/>
    </filter>
    <filter id="filter2_d_1748_1275" x="29.377" y="9.42578" width="3.52579" height="3.91524" filterUnits="userSpaceOnUse" color-interpolation-filters="sRGB">
      <feFlood flood-opacity="0" result="BackgroundImageFix"/>
      <feColorMatrix in="SourceAlpha" type="matrix" values="0 0 0 0 0 0 0 0 0 0 0 0 0 0 0 0 0 0 127 0" result="hardAlpha"/>
      <feOffset dx="0.252357" dy="0.126178"/>
      <feColorMatrix type="matrix" values="0 0 0 0 0 0 0 0 0 0 0 0 0 0 0 0 0 0 1 0"/>
      <feBlend mode="normal" in2="BackgroundImageFix" result="effect1_dropShadow_1748_1275"/>
      <feBlend mode="normal" in="SourceGraphic" in2="effect1_dropShadow_1748_1275" result="shape"/>
    </filter>
    <filter id="filter3_d_1748_1275" x="32.4727" y="8.94141" width="3.20353" height="3.72774" filterUnits="userSpaceOnUse" color-interpolation-filters="sRGB">
      <feFlood flood-opacity="0" result="BackgroundImageFix"/>
      <feColorMatrix in="SourceAlpha" type="matrix" values="0 0 0 0 0 0 0 0 0 0 0 0 0 0 0 0 0 0 127 0" result="hardAlpha"/>
      <feOffset dx="0.252357" dy="0.126178"/>
      <feColorMatrix type="matrix" values="0 0 0 0 0 0 0 0 0 0 0 0 0 0 0 0 0 0 1 0"/>
      <feBlend mode="normal" in2="BackgroundImageFix" result="effect1_dropShadow_1748_1275"/>
      <feBlend mode="normal" in="SourceGraphic" in2="effect1_dropShadow_1748_1275" result="shape"/>
    </filter>
    <filter id="filter4_d_1748_1275" x="36.5215" y="8.80859" width="3.41837" height="3.86055" filterUnits="userSpaceOnUse" color-interpolation-filters="sRGB">
      <feFlood flood-opacity="0" result="BackgroundImageFix"/>
      <feColorMatrix in="SourceAlpha" type="matrix" values="0 0 0 0 0 0 0 0 0 0 0 0 0 0 0 0 0 0 127 0" result="hardAlpha"/>
      <feOffset dx="0.252357" dy="0.126178"/>
      <feColorMatrix type="matrix" values="0 0 0 0 0 0 0 0 0 0 0 0 0 0 0 0 0 0 1 0"/>
      <feBlend mode="normal" in2="BackgroundImageFix" result="effect1_dropShadow_1748_1275"/>
      <feBlend mode="normal" in="SourceGraphic" in2="effect1_dropShadow_1748_1275" result="shape"/>
    </filter>
    <filter id="filter5_d_1748_1275" x="39.5059" y="9.42969" width="3.39494" height="3.88399" filterUnits="userSpaceOnUse" color-interpolation-filters="sRGB">
      <feFlood flood-opacity="0" result="BackgroundImageFix"/>
      <feColorMatrix in="SourceAlpha" type="matrix" values="0 0 0 0 0 0 0 0 0 0 0 0 0 0 0 0 0 0 127 0" result="hardAlpha"/>
      <feOffset dx="0.252357" dy="0.126178"/>
      <feColorMatrix type="matrix" values="0 0 0 0 0 0 0 0 0 0 0 0 0 0 0 0 0 0 1 0"/>
      <feBlend mode="normal" in2="BackgroundImageFix" result="effect1_dropShadow_1748_1275"/>
      <feBlend mode="normal" in="SourceGraphic" in2="effect1_dropShadow_1748_1275" result="shape"/>
    </filter>
    <filter id="filter6_d_1748_1275" x="42.6699" y="10.2344" width="4.50822" height="4.4543" filterUnits="userSpaceOnUse" color-interpolation-filters="sRGB">
      <feFlood flood-opacity="0" result="BackgroundImageFix"/>
      <feColorMatrix in="SourceAlpha" type="matrix" values="0 0 0 0 0 0 0 0 0 0 0 0 0 0 0 0 0 0 127 0" result="hardAlpha"/>
      <feOffset dx="0.252357" dy="0.126178"/>
      <feColorMatrix type="matrix" values="0 0 0 0 0 0 0 0 0 0 0 0 0 0 0 0 0 0 1 0"/>
      <feBlend mode="normal" in2="BackgroundImageFix" result="effect1_dropShadow_1748_1275"/>
      <feBlend mode="normal" in="SourceGraphic" in2="effect1_dropShadow_1748_1275" result="shape"/>
    </filter>
    <filter id="filter7_d_1748_1275" x="27.8613" y="44.9258" width="25.7856" height="8.81641" filterUnits="userSpaceOnUse" color-interpolation-filters="sRGB">
      <feFlood flood-opacity="0" result="BackgroundImageFix"/>
      <feColorMatrix in="SourceAlpha" type="matrix" values="0 0 0 0 0 0 0 0 0 0 0 0 0 0 0 0 0 0 127 0" result="hardAlpha"/>
      <feOffset dx="0.252357"/>
      <feColorMatrix type="matrix" values="0 0 0 0 0 0 0 0 0 0 0 0 0 0 0 0 0 0 1 0"/>
      <feBlend mode="normal" in2="BackgroundImageFix" result="effect1_dropShadow_1748_1275"/>
      <feBlend mode="normal" in="SourceGraphic" in2="effect1_dropShadow_1748_1275" result="shape"/>
    </filter>
    <clipPath id="clip0_1748_1275">
      <rect width="72.3179" height="63.0867" fill="white"/>
    </clipPath>
  </defs>
</svg>