<svg width="14" height="14" viewBox="0 0 14 14" fill="none" xmlns="http://www.w3.org/2000/svg">
<g id="Group">
<path id="Vector" d="M13.816 5.65084L11.82 3.96859V1.58054C11.82 1.52189 11.8085 1.4638 11.7862 1.40959C11.7638 1.35539 11.7309 1.30613 11.6895 1.26463C11.648 1.22313 11.5988 1.19021 11.5446 1.16775C11.4905 1.14529 11.4324 1.13373 11.3737 1.13373H9.95921C9.90051 1.13365 9.84238 1.14515 9.78813 1.16758C9.73389 1.19001 9.6846 1.22292 9.6431 1.26442C9.60159 1.30593 9.56868 1.35521 9.54626 1.40946C9.52383 1.4637 9.51232 1.52184 9.5124 1.58054V2.02327L7.38917 0.233685C7.28311 0.133769 7.1429 0.078125 6.99719 0.078125C6.85147 0.078125 6.71126 0.133769 6.6052 0.233685L0.184176 5.65084C0.0992198 5.72994 0.0400414 5.83277 0.0143443 5.94596C-0.0113529 6.05915 -0.00237847 6.17746 0.0400992 6.28548C0.0828634 6.39283 0.156882 6.48487 0.252565 6.54966C0.348247 6.61446 0.461184 6.64902 0.57674 6.64888H1.50536V13.3464C1.50536 13.6631 1.76493 13.9233 2.08284 13.9233H11.9174C12.0704 13.923 12.2171 13.862 12.3254 13.7538C12.4336 13.6456 12.4945 13.4989 12.4948 13.3458V6.64946H13.4235C13.5398 6.64963 13.6535 6.6144 13.7493 6.54845C13.8452 6.4825 13.9187 6.38895 13.9601 6.28023C14.0022 6.1731 14.0109 6.05576 13.9852 5.94356C13.9595 5.83137 13.9006 5.72897 13.816 5.65084ZM7.43583 11.8257C7.37763 11.9049 7.3016 11.9693 7.2139 12.0137C7.1262 12.0581 7.02928 12.0813 6.93098 12.0813C6.83268 12.0813 6.73576 12.0581 6.64806 12.0137C6.56036 11.9693 6.48433 11.9049 6.42613 11.8257C5.62992 10.7297 4.16465 8.57204 4.16465 7.46493C4.16589 6.73142 4.45818 6.02838 4.97734 5.5102C5.49651 4.99202 6.2001 4.70107 6.93361 4.70122C7.66712 4.70107 8.37071 4.99202 8.88987 5.5102C9.40903 6.02838 9.70132 6.73142 9.70256 7.46493C9.70256 8.57204 8.23729 10.7297 7.43583 11.8257Z" fill="#B5461D"/>
<path id="Vector_2" d="M7 9.02344C7.9665 9.02344 8.75 8.23994 8.75 7.27344C8.75 6.30694 7.9665 5.52344 7 5.52344C6.0335 5.52344 5.25 6.30694 5.25 7.27344C5.25 8.23994 6.0335 9.02344 7 9.02344Z" fill="#FFC800"/>
</g>
</svg>
