<svg width="14" height="14" viewBox="0 0 14 14" fill="none" xmlns="http://www.w3.org/2000/svg">
<g id="Search results for Mail - Flaticon-12 1">
<g id="Group">
<path id="Vector" d="M8.17001 8.57827C7.82171 8.81047 7.41713 8.93322 7 8.93322C6.5829 8.93322 6.17832 8.81047 5.83002 8.57827L0.0932148 4.75362C0.0615454 4.73244 0.0304621 4.7104 0 4.68753L0 10.9546C0 11.6732 0.583105 12.2434 1.28879 12.2434H12.7112C13.4297 12.2434 14 11.6603 14 10.9546V4.6875C13.9695 4.71044 13.9383 4.73252 13.9066 4.75373L8.17001 8.57827Z" fill="#B5461D"/>
<path id="Vector_2" d="M0.548243 4.07088L6.28504 7.89556C6.50221 8.04034 6.75109 8.11272 6.99997 8.11272C7.24888 8.11272 7.49779 8.04031 7.71496 7.89556L13.4518 4.07088C13.7951 3.84214 14 3.45933 14 3.04617C14 2.33575 13.422 1.75781 12.7116 1.75781H1.28836C0.577966 1.75784 6.78154e-07 2.33578 6.78154e-07 3.04685C-0.000212291 3.24953 0.0497391 3.4491 0.1454 3.62778C0.24106 3.80646 0.379456 3.95868 0.548243 4.07088Z" fill="#FFC800"/>
</g>
</g>
</svg>
