<svg width="14" height="14" viewBox="0 0 14 14" fill="none" xmlns="http://www.w3.org/2000/svg">
<g id="Search results for Phone - Flaticon-12 (1) 1" clip-path="url(#clip0_1018_25702)">
<g id="Group">
<g id="Group_2">
<path id="Vector" d="M5.79411 8.20402C4.45783 6.86774 4.15611 5.53146 4.08804 4.99608C4.07866 4.92305 4.08621 4.84883 4.11011 4.77918C4.13401 4.70953 4.17362 4.64632 4.22587 4.59443L5.30725 3.51353C5.38449 3.43633 5.43328 3.33522 5.44565 3.22672C5.45801 3.11821 5.43322 3.00872 5.37532 2.91612L3.65356 0.242602C3.5899 0.140707 3.49054 0.0662097 3.37488 0.0336693C3.25923 0.00112887 3.13559 0.0128836 3.02814 0.0666365L0.264109 1.3684C0.176191 1.41169 0.103627 1.48085 0.0561632 1.56658C0.00869936 1.65232 -0.0113908 1.75053 -0.00140872 1.84802C0.143419 3.22388 0.743246 6.60608 4.06704 9.93012C7.39083 13.2542 10.7726 13.8537 12.1491 13.9986C12.2466 14.0085 12.3448 13.9885 12.4306 13.941C12.5163 13.8935 12.5855 13.821 12.6288 13.7331L13.9305 10.969C13.9841 10.8618 13.9958 10.7385 13.9635 10.623C13.9311 10.5076 13.857 10.4084 13.7555 10.3446L11.082 8.62329C10.9895 8.56533 10.88 8.54046 10.7715 8.55273C10.663 8.56501 10.5618 8.61371 10.4846 8.69088L9.4037 9.77226C9.29845 9.87822 9.15025 9.92915 9.00204 9.91008C8.46666 9.84202 7.13038 9.54029 5.79411 8.20402Z" fill="#B5461D"/>
<path id="Vector_2" d="M11.0999 7.48303C10.9718 7.48303 10.8491 7.43217 10.7585 7.34163C10.668 7.2511 10.6171 7.1283 10.6171 7.00027C10.6147 5.00165 8.99505 3.38199 6.99643 3.37958C6.86839 3.37958 6.7456 3.32872 6.65507 3.23818C6.56453 3.14765 6.51367 3.02486 6.51367 2.89682C6.51367 2.76879 6.56453 2.64599 6.65507 2.55546C6.7456 2.46492 6.86839 2.41406 6.99643 2.41406C9.52826 2.41696 11.5797 4.46844 11.5826 7.00027C11.5826 7.1283 11.5318 7.2511 11.4412 7.34163C11.3507 7.43217 11.2279 7.48303 11.0999 7.48303Z" fill="#FFC800"/>
<path id="Vector_3" d="M13.5137 7.48276C13.3856 7.48276 13.2628 7.4319 13.1723 7.34136C13.0818 7.25083 13.0309 7.12804 13.0309 7C13.0273 3.66897 10.3275 0.969138 6.99643 0.965517C6.86839 0.965517 6.7456 0.914655 6.65507 0.824121C6.56453 0.733586 6.51367 0.610794 6.51367 0.482759C6.51367 0.354723 6.56453 0.231932 6.65507 0.141397C6.7456 0.0508619 6.86839 0 6.99643 0C10.8607 0.00434483 13.9921 3.13576 13.9964 7C13.9964 7.12804 13.9456 7.25083 13.855 7.34136C13.7645 7.4319 13.6417 7.48276 13.5137 7.48276Z" fill="#FFC800"/>
</g>
</g>
</g>
<defs>
<clipPath id="clip0_1018_25702">
<rect width="14" height="14" fill="white"/>
</clipPath>
</defs>
</svg>
