<svg width="20" height="20" viewBox="0 0 20 20" fill="none" xmlns="http://www.w3.org/2000/svg">
<g id="Frame">
<path id="Vector" d="M16.8588 8.47702C16.7276 8.48575 16.5959 8.48575 16.4647 8.47702C15.7538 8.47778 15.054 8.30128 14.4285 7.96352C13.8031 7.62576 13.2719 7.1374 12.8829 6.54267V13.1335C12.8829 14.096 12.5973 15.0369 12.0623 15.8372C11.5273 16.6375 10.7668 17.2612 9.87707 17.6296C8.98735 17.9979 8.00831 18.0943 7.06378 17.9065C6.11926 17.7187 5.25166 17.2552 4.57069 16.5746C3.88973 15.894 3.42597 15.0269 3.23809 14.0829C3.05021 13.1389 3.14665 12.1604 3.51518 11.2711C3.88372 10.3819 4.50781 9.62186 5.30854 9.08712C6.10927 8.55238 7.05069 8.26696 8.01372 8.26696H8.31148V10.6652C8.21243 10.6561 8.11277 10.6561 8.01372 10.6652C7.3541 10.6652 6.72149 10.9271 6.25506 11.3933C5.78863 11.8594 5.52659 12.4917 5.52659 13.151C5.52659 13.8103 5.78863 14.4425 6.25506 14.9087C6.72149 15.3749 7.3541 15.6368 8.01372 15.6368C8.68075 15.6463 9.32491 15.3941 9.80794 14.9342C10.291 14.4744 10.5743 13.8436 10.5972 13.1772V2H12.8916C12.9976 2.99659 13.45 3.92443 14.1702 4.62181C14.8904 5.31918 15.8325 5.74187 16.8325 5.81619V8.44201" fill="white"/>
</g>
</svg>
