<svg width="14" height="14" viewBox="0 0 14 14" fill="none" xmlns="http://www.w3.org/2000/svg">
<g id="Search results for World - Flaticon-12 1" clip-path="url(#clip0_1018_25695)">
<path id="Vector 238" d="M4.15625 6.125L2.84375 8.3125L3.28125 11.375L5.03125 13.125H7.21875L8.53125 10.5L7.21875 7L4.15625 6.125Z" fill="#FFC800"/>
<g id="Group">
<path id="Vector" d="M7 0C5.61553 0 4.26215 0.410543 3.11101 1.17971C1.95987 1.94888 1.06266 3.04213 0.532846 4.32122C0.00303301 5.6003 -0.13559 7.00776 0.134506 8.36563C0.404603 9.7235 1.07129 10.9708 2.05026 11.9497C3.02922 12.9287 4.2765 13.5954 5.63437 13.8655C6.99224 14.1356 8.3997 13.997 9.67878 13.4672C10.9579 12.9373 12.0511 12.0401 12.8203 10.889C13.5895 9.73785 14 8.38447 14 7C14 5.14348 13.2625 3.36301 11.9497 2.05025C10.637 0.737498 8.85652 0 7 0ZM4.1545 1.31409L4.53409 1.57755C4.61805 1.63604 4.68607 1.71456 4.732 1.806L4.82746 1.99691C4.87809 2.09837 4.956 2.18371 5.05245 2.24334C5.1489 2.30298 5.26006 2.33454 5.37346 2.3345H6.05214C6.21408 2.3345 6.36938 2.39883 6.48389 2.51334C6.5984 2.62785 6.66273 2.78315 6.66273 2.94509V2.95718C6.66281 3.07058 6.63126 3.18176 6.57162 3.27821C6.51198 3.37467 6.42662 3.45258 6.32514 3.50318L4.697 4.31773C4.67422 4.32884 4.65221 4.3415 4.63114 4.35559L3.79782 4.91114C3.70938 4.97021 3.63779 5.05123 3.59005 5.14627L3.46627 5.39509C3.42349 5.47968 3.4012 5.57314 3.4012 5.66793C3.4012 5.76272 3.42349 5.85618 3.46627 5.94077C3.52349 6.0555 3.54319 6.18531 3.52258 6.31184C3.50196 6.43838 3.44208 6.55523 3.35141 6.64586L3.33327 6.66432C3.237 6.7606 3.11129 6.82193 2.97614 6.83853C2.841 6.85514 2.70418 6.82607 2.58746 6.75595L1.5225 6.11641C1.39758 6.04132 1.30359 5.92408 1.25746 5.78582L0.995594 4.99991C0.983503 4.99991 0.974912 4.99609 0.963776 4.99577C1.49783 3.39443 2.64534 2.07035 4.1545 1.31409ZM7.66214 9.26641C7.66218 9.31063 7.65509 9.35458 7.64114 9.39654L7.35955 10.241C7.33945 10.3017 7.30546 10.3568 7.26027 10.402L6.75118 10.9111C6.69357 10.9686 6.65436 11.0419 6.63855 11.1217L6.36905 12.4683C6.35658 12.5296 6.3303 12.5872 6.2922 12.6369C6.25411 12.6865 6.20519 12.7268 6.14918 12.7546L5.92836 12.8654C5.85094 12.9038 5.76342 12.917 5.6781 12.9031C5.59278 12.8893 5.51395 12.849 5.45268 12.788L5.0435 12.3789C5.01223 12.3474 4.98614 12.3112 4.96618 12.2716L4.70623 11.7517C4.67784 11.6945 4.66303 11.6314 4.66296 11.5675V10.2547C4.66281 10.1782 4.64144 10.1032 4.60122 10.0381C4.561 9.97296 4.50351 9.92029 4.43514 9.88591L4.09405 9.71568C4.02968 9.68374 3.97482 9.63547 3.93496 9.57568L3.39818 8.77036C3.35299 8.70274 3.32885 8.62324 3.32882 8.54191V8.25554C3.32902 8.17907 3.35042 8.10415 3.39064 8.03911C3.43086 7.97406 3.48832 7.92144 3.55664 7.88709L3.87259 7.728C3.95241 7.68826 4.01709 7.62358 4.05682 7.54377L4.21591 7.22782C4.25019 7.15964 4.30266 7.10227 4.36752 7.06207C4.43238 7.02186 4.5071 7.00038 4.58341 7H5.15805C5.21217 6.99996 5.26577 7.01059 5.31578 7.03128C5.36579 7.05197 5.41123 7.08232 5.4495 7.12059L5.54146 7.21254C5.61881 7.28977 5.7236 7.33324 5.83291 7.33345H5.91818C6.02761 7.33387 6.13241 7.37764 6.20964 7.45517C6.28687 7.53269 6.33023 7.63766 6.33023 7.74709C6.3304 7.82353 6.35175 7.89843 6.39191 7.96347C6.43207 8.02851 6.48947 8.08115 6.55773 8.11554L7.43591 8.55432C7.50422 8.58874 7.56165 8.64143 7.60181 8.70653C7.64197 8.77163 7.6633 8.8466 7.66341 8.92309L7.66214 9.26641ZM9.33895 3.21809C9.36735 3.14935 9.40897 3.08687 9.46145 3.03418L10.0313 2.46464C10.0743 2.42173 10.1238 2.38596 10.178 2.35868L10.7762 2.05959C10.8284 2.03466 10.8843 2.01802 10.9416 2.01027C11.6287 2.55199 12.1971 3.22921 12.6115 3.99986H12.3302C12.1802 3.99987 12.0364 3.94037 11.9302 3.83441L11.8615 3.76568C11.7554 3.65964 11.6116 3.60002 11.4615 3.59991H11.0295C10.9411 3.59966 10.8539 3.62015 10.7749 3.65973L10.2143 3.94036C10.1352 3.97981 10.0481 4.00019 9.95973 3.99986H9.85886C9.7659 3.9998 9.67439 3.97683 9.59242 3.93298C9.51045 3.88913 9.44055 3.82576 9.3889 3.74847C9.33725 3.67119 9.30544 3.58236 9.29628 3.48985C9.28713 3.39734 9.30091 3.304 9.33641 3.21809H9.33895ZM11.7377 11.2379L11.6964 11.1364C11.6738 11.0683 11.6623 10.9971 11.6623 10.9254V10.1907C11.6623 10.0872 11.6382 9.98518 11.592 9.89259L11.0657 8.84068C11.0195 8.74809 10.9954 8.64603 10.9954 8.54254V8.44518C10.9954 8.33159 10.9664 8.21989 10.911 8.12068C10.8557 8.02146 10.776 7.93803 10.6794 7.8783C10.5828 7.81856 10.4725 7.78451 10.359 7.77936C10.2455 7.77422 10.1326 7.79816 10.031 7.84891L9.80286 7.96313C9.71037 8.0093 9.60842 8.03337 9.50504 8.03345H9.47609C9.33616 8.03321 9.19983 7.98905 9.08634 7.90718C8.97285 7.82532 8.88793 7.70989 8.84355 7.57718L8.69655 7.13586C8.67385 7.06784 8.66224 6.99661 8.66218 6.92491V6.39004C8.66217 6.2803 8.68925 6.17226 8.74104 6.07551C8.79283 5.97876 8.86772 5.8963 8.95905 5.83545L9.56614 5.43073C9.62969 5.38832 9.70009 5.35721 9.77423 5.33877L10.807 5.08041C10.9302 5.04967 11.0595 5.05463 11.18 5.09473L11.8927 5.33241C11.9608 5.35509 12.0321 5.3667 12.104 5.36677H13.1441C13.4202 6.38486 13.4362 7.45601 13.1904 8.48186C12.9447 9.50771 12.4452 10.4554 11.7377 11.2379Z" fill="#B5461D"/>
</g>
</g>
<defs>
<clipPath id="clip0_1018_25695">
<rect width="14" height="14" fill="white"/>
</clipPath>
</defs>
</svg>
