<svg width="20" height="20" viewBox="0 0 20 20" fill="none" xmlns="http://www.w3.org/2000/svg">
<g id="Frame">
<path id="Vector" d="M9.99806 15.2188H9.98283C9.93559 15.2188 5.20949 15.2096 4.01711 14.8858C3.36144 14.7092 2.84938 14.1968 2.67311 13.5411C2.4587 12.3315 2.35516 11.1047 2.36378 9.8763C2.35824 8.64583 2.46459 7.41741 2.68149 6.20621C2.8626 5.54983 3.37241 5.03512 4.02702 4.84773C5.18664 4.54297 9.78244 4.54297 9.97749 4.54297H9.99349C10.0415 4.54297 14.7798 4.55211 15.96 4.87592C16.6143 5.05345 17.1253 5.56476 17.3024 6.21916C17.5237 7.43328 17.6276 8.66586 17.6125 9.89992C17.6179 11.1289 17.5113 12.3558 17.2941 13.5654C17.1156 14.2204 16.6032 14.7316 15.9478 14.9087C14.7897 15.2157 10.1931 15.2188 9.99806 15.2188ZM8.47425 7.5944L8.47045 12.1658L12.4415 9.88011L8.47425 7.5944Z" fill="white"/>
</g>
</svg>
