<svg width="24" height="16" viewBox="0 0 24 16" fill="none" xmlns="http://www.w3.org/2000/svg">
<g id="Group">
<path id="Vector" d="M12.0077 8.49515L4.51638 1.00411C4.13613 0.623487 3.67107 0.433607 3.12124 0.433607C2.57146 0.433607 2.10661 0.623542 1.72642 1.00411L0.570182 2.15997C0.190096 2.54001 -5.49242e-07 3.00513 -5.25217e-07 3.55474C-5.01193e-07 4.10435 0.190096 4.56926 0.570182 4.94988L10.6049 14.9999C10.9851 15.3802 11.4501 15.5703 12 15.5703C12.5499 15.5703 13.0145 15.3802 13.395 14.9999L23.4297 4.94993C23.8099 4.56931 24 4.10446 24 3.55479C24 3.00513 23.8099 2.54006 23.4297 2.16003L22.2736 1.00417C21.8936 0.623541 21.4312 0.43366 20.8863 0.43366C20.3418 0.43366 19.8742 0.623595 19.4837 1.00417L12.0077 8.49515Z" fill="#F7B200"/>
</g>
</svg>
