<svg width="16" height="13" viewBox="0 0 16 13" fill="none" xmlns="http://www.w3.org/2000/svg">
<g id="Group">
<rect id="Rectangle 34625053" x="3.78906" y="7" width="8.42105" height="5.47368" rx="1" fill="#FFC800"/>
<path id="Vector" d="M15.0431 8.66651C14.9985 8.48913 14.9061 8.32738 14.776 8.19885L11.505 4.96805C11.418 4.88212 11.3475 4.78096 11.297 4.66959L9.85473 1.48914C9.64614 1.02917 9.12731 0.796931 8.64531 0.94779L4.71683 2.17733C4.39806 2.2771 4.15015 2.52944 4.05604 2.84993L3.1186 6.04241C3.03054 6.3423 2.80733 6.58377 2.51528 6.69509L1.82656 6.95761C1.52155 7.07386 1.29248 7.33166 1.2129 7.64823L0.312676 11.2293C0.153935 11.8607 0.631391 12.4731 1.2825 12.4731H4.80823L5.39162 9.70462C5.44432 9.45453 5.59078 9.23411 5.80092 9.08863L7.62706 7.82437C7.97651 7.58245 8.44071 7.58784 8.78444 7.83783L10.2844 8.92872C10.4422 9.04349 10.563 9.20193 10.6319 9.3845L11.797 12.4731H14.7175C15.3686 12.4731 15.8461 11.8607 15.6873 11.2293L15.0431 8.66651Z" fill="#B5461D"/>
</g>
</svg>
