<svg width="14" height="16" viewBox="0 0 14 16" fill="none" xmlns="http://www.w3.org/2000/svg">
<g id="Group">
<g id="Vector">
<path d="M8.37077 0.338513V4.52476H5.62891V0.338513C5.62891 0.151655 5.78056 0 5.96742 0H8.03229C8.21911 0 8.37077 0.151655 8.37077 0.338513Z" fill="#B5461D"/>
<path d="M8.37077 0.338513V4.52476H5.62891V0.338513C5.62891 0.151655 5.78056 0 5.96742 0H8.03229C8.21911 0 8.37077 0.151655 8.37077 0.338513Z" stroke="#262626"/>
</g>
<path id="Vector_2" d="M10.0053 3.74476V6.66501H3.99414V3.74476C3.99414 3.55791 4.14544 3.40625 4.33265 3.40625H9.66678C9.85399 3.40625 10.0053 3.55791 10.0053 3.74476Z" fill="#FFC800"/>
<path id="Vector_3" d="M11.1752 6.02601V11.4458H2.82227V6.02601C2.82227 5.83883 2.97392 5.6875 3.16078 5.6875H10.8367C11.0235 5.68753 11.1752 5.83883 11.1752 6.02601Z" fill="#B5461D"/>
<path id="Vector_4" d="M13.5119 11.1812L11.3242 15.7141C11.2827 15.8001 11.2178 15.8726 11.1369 15.9234C11.056 15.9742 10.9624 16.0011 10.8669 16.0011H3.1319C3.03639 16.0011 2.94282 15.9742 2.86194 15.9234C2.78105 15.8726 2.71613 15.8001 2.67462 15.7141L0.486946 11.1812C0.405374 11.0126 0.476453 10.8098 0.645372 10.7289L4.07476 9.08312C4.99919 8.63968 5.99949 8.41797 6.99943 8.41797C7.99938 8.41797 8.99964 8.63968 9.92411 9.08312L13.3535 10.7289C13.5224 10.8099 13.5934 11.0126 13.5119 11.1812Z" fill="#B5461D"/>
<path id="Vector_5" d="M13.5119 11.1811L12.7641 12.7308L9.92408 11.368C8.99964 10.9246 7.99935 10.7028 6.9994 10.7028C5.99946 10.7028 4.99919 10.9246 4.07472 11.368L1.2347 12.7308L0.486946 11.1811C0.405374 11.0122 0.476453 10.8098 0.645372 10.7286L4.07476 9.08312C4.99919 8.63968 5.99949 8.41797 6.99943 8.41797C7.99938 8.41797 8.99964 8.63968 9.92411 9.08312L13.3535 10.7286C13.5224 10.8098 13.5934 11.0123 13.5119 11.1811Z" fill="#FFC800"/>
<path id="Vector_6" d="M8.37077 0.338513V1.63057H5.62891V0.338513C5.62891 0.151655 5.78056 0 5.96742 0H8.03229C8.21911 0 8.37077 0.151655 8.37077 0.338513Z" fill="#FFC800"/>
<path id="Vector_7" d="M4.86068 6.5625H4.5351C4.25467 6.5625 4.02734 6.78982 4.02734 7.07025C4.02734 7.35068 4.25467 7.57801 4.5351 7.57801H4.86068C5.14111 7.57801 5.36843 7.35068 5.36843 7.07025C5.36843 6.78985 5.14111 6.5625 4.86068 6.5625ZM7.67028 7.07035C7.67028 7.35065 7.4428 7.5781 7.16253 7.5781H6.83688C6.55661 7.5781 6.32913 7.35065 6.32913 7.07035C6.32913 6.78973 6.55661 6.5626 6.83688 6.5626H7.16253C7.4428 6.5626 7.67028 6.78973 7.67028 7.07035Z" fill="#FFC800"/>
<path id="Vector_8" d="M7.67058 7.07025C7.67058 7.35056 7.44309 7.57801 7.16282 7.57801H7V6.5625H7.16282C7.44309 6.5625 7.67058 6.78963 7.67058 7.07025ZM9.9724 7.07025C9.9724 7.35056 9.74491 7.57801 9.46464 7.57801H9.139C8.85873 7.57801 8.63124 7.35056 8.63124 7.07025C8.63124 6.78963 8.85873 6.5625 9.139 6.5625H9.46464C9.74491 6.5625 9.9724 6.78963 9.9724 7.07025Z" fill="#FFC800"/>
</g>
</svg>
