<svg xmlns="http://www.w3.org/2000/svg" width="17" height="20" viewBox="0 0 17 20" fill="none">
  <ellipse cx="8.06" cy="6.17328" rx="4.80609" ry="4.80609" fill="#FFC800"/>
  <path d="M9.61942 15.3984C13.2781 15.6089 16.036 16.5492 16.036 17.677C16.036 18.9589 12.4661 19.9992 8.06 19.9992C3.65521 19.9992 0.0839844 18.9589 0.0839844 17.677C0.0839844 16.5623 2.7784 15.6318 6.37261 15.4056L9.61942 15.3984Z" fill="#FFC800"/>
  <path d="M7.98951 0C11.4413 0 14.2398 2.7985 14.2398 6.25123C14.2398 8.19995 11.6062 12.2704 9.61968 15.3992C9.31217 15.8836 9.02013 16.3455 8.75576 16.7734C8.4118 17.3301 7.56699 17.3302 7.22447 16.7726C6.96483 16.3499 6.67688 15.8904 6.37286 15.4064C4.39665 12.2618 1.73828 8.08145 1.73828 6.25123C1.73828 2.7985 4.53678 0 7.98951 0ZM10.7822 6.01558C10.7822 4.47643 9.52776 3.22159 7.98951 3.22159C6.45036 3.22159 5.19597 4.47643 5.19597 6.01558C5.19597 7.55383 6.45036 8.80822 7.98951 8.80822C9.52776 8.80822 10.7822 7.55383 10.7822 6.01558Z" fill="#E85925"/>
</svg>