<svg width="14" height="17" viewBox="0 0 14 17" fill="none" xmlns="http://www.w3.org/2000/svg">
<g id="Group 1000004073">
<ellipse id="Ellipse 1989" cx="7.04605" cy="5.43863" rx="3.84488" ry="3.84488" fill="white"/>
<path id="Vector" d="M8.29437 12.8203C11.2213 12.9886 13.4276 13.7409 13.4276 14.6431C13.4276 15.6686 10.5717 16.5009 7.04683 16.5009C3.523 16.5009 0.666016 15.6686 0.666016 14.6431C0.666016 13.7514 2.82155 13.007 5.69692 12.8261L8.29437 12.8203Z" fill="white"/>
<path id="Vector_2" d="M6.99122 0.5C9.75268 0.5 11.9915 2.7388 11.9915 5.50098C11.9915 7.05996 9.8846 10.3163 8.29535 12.8193C8.04935 13.2069 7.81571 13.5764 7.60422 13.9187C7.32905 14.3641 6.6532 14.3642 6.37918 13.9181C6.17147 13.58 5.94112 13.2123 5.6979 12.8251C4.11693 10.3095 1.99023 6.96516 1.99023 5.50098C1.99023 2.7388 4.22903 0.5 6.99122 0.5ZM9.22533 5.31246C9.22533 4.08114 8.22182 3.07727 6.99122 3.07727C5.75989 3.07727 4.75638 4.08114 4.75638 5.31246C4.75638 6.54306 5.75989 7.54658 6.99122 7.54658C8.22182 7.54658 9.22533 6.54306 9.22533 5.31246Z" fill="#FF6229"/>
</g>
</svg>
