<svg width="16" height="12" viewBox="0 0 16 12" fill="none" xmlns="http://www.w3.org/2000/svg">
<g id="Group">
<path id="Vector" d="M4.18155 11.8142C3.19426 11.7846 2.20707 11.7382 1.21999 11.6748C0.392802 11.6123 -0.295948 10.5567 0.137802 9.84607C1.3328 7.85607 2.94155 5.70107 4.43686 3.52138C4.88905 2.86513 5.70655 2.84825 6.10843 3.49575C6.3678 3.91263 6.63624 4.33107 6.90999 4.75013L4.18155 11.8142Z" fill="#FFC800"/>
<path id="Vector_2" d="M15.869 10.1065C15.1115 8.84521 14.1781 7.51271 13.2187 6.15209C12.7865 5.54271 11.9703 5.52396 11.5812 6.13146C11.5366 6.20105 11.4916 6.27073 11.4462 6.34052C11.1859 6.74084 10.6337 6.7399 10.3631 6.3349C9.86716 5.59177 9.37779 4.84771 8.9181 4.10927C8.53841 3.49771 7.76622 3.51552 7.33935 4.13334C5.92591 6.19209 4.40685 8.22709 3.27685 10.1065C2.86716 10.778 3.51779 11.7761 4.29904 11.8336C6.09341 11.9486 7.888 12.005 9.68279 12.0027C10.4524 12.0015 11.2221 11.9896 11.9918 11.9671C12.9431 11.9392 13.8944 11.8947 14.8456 11.8336C15.6281 11.7758 16.2784 10.778 15.869 10.1065Z" fill="#B5461D"/>
<path id="Vector_3" d="M11.2826 3.54172C12.2617 3.54172 13.0554 2.748 13.0554 1.76891C13.0554 0.789809 12.2617 -0.00390625 11.2826 -0.00390625C10.3035 -0.00390625 9.50977 0.789809 9.50977 1.76891C9.50977 2.748 10.3035 3.54172 11.2826 3.54172Z" fill="#B5461D"/>
</g>
</svg>
