<svg width="14" height="16" viewBox="0 0 14 16" fill="none" xmlns="http://www.w3.org/2000/svg">
<g id="Group">
<path id="Vector" d="M0.894979 5.76953H1.4995V7.96774H0.894979C0.621843 7.96774 0.400391 7.74626 0.400391 7.47315V6.26415C0.400359 5.99102 0.621843 5.76953 0.894979 5.76953Z" fill="#B5461D"/>
<path id="Vector_2" d="M6.17087 3.29688H5.07176C4.46478 3.29688 3.97266 3.78899 3.97266 4.39598V9.34196H7.26997V4.39598C7.26997 3.78899 6.77785 3.29688 6.17087 3.29688Z" fill="#FFC800"/>
<path id="Vector_3" d="M6.99509 0.550781L4.8315 0.825542C4.80847 0.915312 4.79683 1.00763 4.79688 1.1003V2.19941C4.79688 2.8064 5.28899 3.29851 5.89598 3.29851C6.50297 3.29851 6.99509 2.8064 6.99509 2.19941V1.10033C7.00634 0.917317 7.00634 0.733768 6.99509 0.550781Z" fill="#FFC800"/>
<path id="Vector_4" d="M4.79732 0.824314V1.92342L5.89642 0.824314H6.72074C7.17605 0.824314 7.54505 0.455279 7.54505 0H5.62163C5.16635 0 4.79732 0.369035 4.79732 0.824314ZM7.27029 9.34237H3.97297V12.0901L1.5 13.1892L2.04955 14.2883L4.67036 13.1964C4.8707 13.1129 5.04185 12.972 5.16224 12.7914C5.28263 12.6109 5.34687 12.3987 5.34687 12.1817V10.9617C5.34687 10.6745 5.5796 10.4415 5.86702 10.4415C5.95932 10.4415 6.04996 10.4661 6.12963 10.5127C6.20931 10.5593 6.27515 10.6262 6.32039 10.7067L8.64416 14.8379L9.74326 14.2884L7.27029 9.34237Z" fill="#B5461D"/>
<path id="Vector_5" d="M1.34754 15.6313L0.400391 13.7371L1.4995 13.1875L2.47577 15.14C2.51385 15.2163 2.53368 15.3004 2.53368 15.3857C2.53368 15.471 2.51385 15.5551 2.47577 15.6313C2.43012 15.7226 2.35995 15.7994 2.27313 15.8531C2.18631 15.9068 2.08626 15.9352 1.98418 15.9353H1.8391C1.73701 15.9353 1.63693 15.9069 1.5501 15.8532C1.46327 15.7995 1.39313 15.7227 1.34754 15.6313ZM10.8419 15.1109L9.19321 15.9352L8.64365 14.8361L10.2923 14.0118C10.5959 13.8601 10.965 13.983 11.1166 14.2866C11.2683 14.5902 11.1452 14.9592 10.8419 15.1109Z" fill="#B5461D"/>
<path id="Vector_6" d="M11.0372 5.02444C10.8119 4.72412 10.3855 4.66313 10.0851 4.88842C10.0593 4.90767 10.0351 4.92882 10.0123 4.9516L8.6434 6.32053L7.26953 4.67188V6.87009L7.38962 7.05007C7.83311 7.71474 8.73136 7.89445 9.39631 7.45098C9.47568 7.39809 9.54959 7.33743 9.61695 7.2699L10.9741 5.91278C11.2131 5.67346 11.24 5.29511 11.0372 5.02444Z" fill="#B5461D"/>
<path id="Vector_7" d="M1.5 8.24351C1.5 8.69882 1.86903 9.06782 2.32431 9.06782H3.14863C3.60394 9.06782 3.97294 8.69879 3.97294 8.24351V7.96875H1.5V8.24351Z" fill="#B5461D"/>
<path id="Vector_8" d="M3.92626 3.84643C3.86942 3.68563 3.7641 3.54643 3.62483 3.448C3.48555 3.34957 3.31917 3.29677 3.14863 3.29688H2.32431C1.869 3.29688 1.5 3.66591 1.5 4.12119V7.96806H3.97297V4.12119L3.92626 3.84643Z" fill="#FFC800"/>
<path id="Vector_9" d="M12.969 15.6074C13.0034 15.7552 12.9114 15.9029 12.7636 15.9373V15.9373C12.6158 15.9716 12.4681 15.8797 12.4337 15.7319L9.80992 4.45133C9.77554 4.30352 9.86749 4.15582 10.0153 4.12144V4.12144C10.1631 4.08706 10.3108 4.17902 10.3452 4.32682L12.969 15.6074Z" fill="#FFC800"/>
<path id="Vector_10" d="M5.84196 4.55318L4.24827 5.5248L6.11675 6.86873C6.4322 7.07974 6.51682 7.50621 6.3058 7.82166C6.29918 7.83154 6.29231 7.84125 6.28518 7.85078C6.06645 8.14176 5.65898 8.21156 5.35587 8.01014L3.05573 6.37936C2.91527 6.28543 2.80015 6.1583 2.72059 6.00923C2.64102 5.86017 2.59947 5.69377 2.59961 5.5248C2.5996 5.35577 2.64132 5.18935 2.72108 5.04032C2.80085 4.89129 2.91617 4.76426 3.05683 4.67052L5.08221 3.41177C5.38528 3.21034 5.79278 3.28015 6.01151 3.57113C6.23821 3.87529 6.17556 4.30561 5.87137 4.53256C5.86174 4.53971 5.85187 4.54659 5.84196 4.55318Z" fill="#B5461D"/>
</g>
</svg>
